<svg xmlns="http://www.w3.org/2000/svg" viewBox="0 0 26.17 25.78"><defs><style>.cls-1{fill:#fff;stroke:#fff;stroke-miterlimit:10;stroke-width:0.25px;}</style></defs><title>Asset 2</title><g id="Layer_2" data-name="Layer 2"><g id="Layer_1-2" data-name="Layer 1"><path class="cls-1" d="M3.63,13.11a1.48,1.48,0,1,0,1.48-1.49,1.48,1.48,0,0,0-1.48,1.49Zm2.2,0a.72.72,0,1,1-.72-.73.72.72,0,0,1,.72.73Z"/><path class="cls-1" d="M12.16,13.11a1.48,1.48,0,1,0-1.48,1.48,1.49,1.49,0,0,0,1.48-1.48Zm-2.21,0a.73.73,0,0,1,.73-.73.73.73,0,1,1-.73.73Z"/><path class="cls-1" d="M17.73,13.11a1.49,1.49,0,1,0-1.49,1.48,1.49,1.49,0,0,0,1.49-1.48Zm-2.21,0a.73.73,0,1,1,.72.72.73.73,0,0,1-.72-.72Z"/><path class="cls-1" d="M22.35.13h-14a3.71,3.71,0,0,0-3.71,3.7v.6h-.8a3.7,3.7,0,0,0-3.7,3.7v9.41a3.71,3.71,0,0,0,3.7,3.71h4a.38.38,0,1,0,0-.76h-4A3,3,0,0,1,.88,17.54V8.13a3,3,0,0,1,3-2.94h14a2.94,2.94,0,0,1,2.94,2.94v9.41a3,3,0,0,1-2.94,2.95,1.43,1.43,0,0,0-1.11.52,18.31,18.31,0,0,1-4.49,3.86.13.13,0,0,1-.18-.17,14.14,14.14,0,0,0,1.09-3.06.93.93,0,0,0-.91-1.15H9.56a.38.38,0,0,0,0,.76h2.68a.17.17,0,0,1,.17.22,13.41,13.41,0,0,1-1,2.9.89.89,0,0,0,1.27,1.15,19.19,19.19,0,0,0,4.68-4,.64.64,0,0,1,.52-.24,3.71,3.71,0,0,0,3.7-3.71v-.6h.81a3.7,3.7,0,0,0,3.7-3.7V9.42a.38.38,0,0,0-.76,0v3.82a2.94,2.94,0,0,1-2.94,2.94h-.81v-8a3.7,3.7,0,0,0-3.7-3.7H5.39v-.6a3,3,0,0,1,3-2.95h14a3,3,0,0,1,2.94,3V7.65a.38.38,0,1,0,.76,0V3.83a3.7,3.7,0,0,0-3.7-3.7Z"/></g></g></svg>