<?xml version="1.0" encoding="iso-8859-1"?>
<!-- Generator: Adobe Illustrator 19.0.0, SVG Export Plug-In . SVG Version: 6.00 Build 0)  -->
<svg version="1.1" id="Capa_1" xmlns="http://www.w3.org/2000/svg" xmlns:xlink="http://www.w3.org/1999/xlink" x="0px" y="0px"
	 viewBox="0 0 512 512" style="enable-background:new 0 0 512 512;" xml:space="preserve">
<g>
	<g>
		<g>
			<path style="fill:#ffffff;" d="M384,277.333c-58.91,0-106.667,47.756-106.667,106.667S325.09,490.667,384,490.667S490.667,442.91,490.667,384
				S442.91,277.333,384,277.333z M377.6,441.6c-8.295,8.131-21.571,8.131-29.867,0l-42.667-42.667l29.867-29.867l27.733,27.733
				l70.4-70.4l29.867,29.867L377.6,441.6z"/>
			<path style="fill:#ffffff;" d="M256,384c0-70.692,57.308-128,128-128h21.333V21.333C405.333,9.551,395.782,0,384,0H42.667
				C30.885,0,21.333,9.551,21.333,21.333v469.333c0,11.782,9.551,21.333,21.333,21.333H384C313.308,512,256,454.693,256,384z
				 M170.667,85.333H320V128H170.667V85.333z M170.667,192h106.667v42.667H170.667V192z M106.667,341.333
				c-11.782,0-21.333-9.551-21.333-21.333s9.551-21.333,21.333-21.333c11.782,0,21.333,9.551,21.333,21.333
				S118.449,341.333,106.667,341.333z M106.667,234.667c-11.782,0-21.333-9.551-21.333-21.333c0-11.782,9.551-21.333,21.333-21.333
				c11.782,0,21.333,9.551,21.333,21.333C128,225.115,118.449,234.667,106.667,234.667z M106.667,128
				c-11.782,0-21.333-9.551-21.333-21.333c0-11.782,9.551-21.333,21.333-21.333c11.782,0,21.333,9.551,21.333,21.333
				C128,118.449,118.449,128,106.667,128z M234.667,341.333h-64v-42.667h64V341.333z"/>
		</g>
	</g>
</g>
<g>
</g>
<g>
</g>
<g>
</g>
<g>
</g>
<g>
</g>
<g>
</g>
<g>
</g>
<g>
</g>
<g>
</g>
<g>
</g>
<g>
</g>
<g>
</g>
<g>
</g>
<g>
</g>
<g>
</g>
</svg>
