<svg id="Layer_1" data-name="Layer 1" xmlns="http://www.w3.org/2000/svg" viewBox="0 0 282 90"><defs><style>.cls-1{fill:#c00;}.cls-2{fill:#ff52a8;}.cls-3{fill:#feeb70;}.cls-4{fill:#fef7cb;}.cls-5{fill:#ff8aef;}.cls-6{fill:#e53045;}.cls-7{fill:#fcb629;}.cls-8{fill:#ff4fa1;}.cls-9{fill:#fff;}</style></defs><title>dang-ky</title><path class="cls-1" d="M276,118H26a16,16,0,0,1-16-16V44A16,16,0,0,1,26,28H276a16,16,0,0,1,16,16v58A16,16,0,0,1,276,118Z" transform="translate(-10 -28)"/><path class="cls-2" d="M75.6,80.8H53.5a2.26,2.26,0,0,0-2.3,2.3V110a2.31,2.31,0,0,0,1.1,2,2.35,2.35,0,0,0,2.3,0l9.9-5.5,9.9,5.5a2.28,2.28,0,0,0,1.1.3,2.66,2.66,0,0,0,1.2-.3,2.31,2.31,0,0,0,1.1-2V83.2A2.21,2.21,0,0,0,75.6,80.8Z" transform="translate(-10 -28)"/><path class="cls-3" d="M96.8,65.8A9.76,9.76,0,0,0,93,58.2,9.52,9.52,0,0,0,85.4,45a9.76,9.76,0,0,0-4.7-7.1,9.45,9.45,0,0,0-8.5-.5,9.5,9.5,0,0,0-15.2,0A9.52,9.52,0,0,0,43.8,45a9.76,9.76,0,0,0-7.1,4.7,9.45,9.45,0,0,0-.5,8.5,9.5,9.5,0,0,0,0,15.2,9.52,9.52,0,0,0,7.6,13.2,9.76,9.76,0,0,0,4.7,7.1,9.45,9.45,0,0,0,8.5.5,9.5,9.5,0,0,0,15.2,0,9.52,9.52,0,0,0,13.2-7.6,9.76,9.76,0,0,0,7.1-4.7,9.45,9.45,0,0,0,.5-8.5A9.47,9.47,0,0,0,96.8,65.8Z" transform="translate(-10 -28)"/><path class="cls-4" d="M64.6,86.9A21.1,21.1,0,1,1,85.7,65.8,21.17,21.17,0,0,1,64.6,86.9Z" transform="translate(-10 -28)"/><path class="cls-5" d="M61.4,73h-.2a2.6,2.6,0,0,1-1.6-.9L55,66.3a2.35,2.35,0,1,1,3.7-2.9l3,3.8,9-8.1a2.34,2.34,0,0,1,3.1,3.5L62.9,72.3A1.93,1.93,0,0,1,61.4,73Z" transform="translate(-10 -28)"/><path class="cls-6" d="M75.6,80.8h-11v25.7h0l9.9,5.5a2.28,2.28,0,0,0,1.1.3,2.66,2.66,0,0,0,1.2-.3,2.31,2.31,0,0,0,1.1-2V83.2A2.35,2.35,0,0,0,75.6,80.8Z" transform="translate(-10 -28)"/><path class="cls-7" d="M93,58.2A9.52,9.52,0,0,0,85.4,45a9.76,9.76,0,0,0-4.7-7.1,9.45,9.45,0,0,0-8.5-.5,9.76,9.76,0,0,0-7.6-3.8h0V98h0a9.76,9.76,0,0,0,7.6-3.8,9.52,9.52,0,0,0,13.2-7.6,9.76,9.76,0,0,0,7.1-4.7,9.45,9.45,0,0,0,.5-8.5,9.5,9.5,0,0,0,0-15.2Z" transform="translate(-10 -28)"/><path class="cls-3" d="M64.6,44.7h0V86.9h0a21.1,21.1,0,0,0,0-42.2Z" transform="translate(-10 -28)"/><path class="cls-8" d="M70.7,59.2l-6.1,5.5V71l9.2-8.3a2.36,2.36,0,0,0,.2-3.3A2.46,2.46,0,0,0,70.7,59.2Z" transform="translate(-10 -28)"/><path class="cls-9" d="M114.8,84.8V73.1h-3.3V69.8h3.3V58.2H123a12.31,12.31,0,0,1,6.3,1.6,11.63,11.63,0,0,1,4.3,4.5,14,14,0,0,1,1.6,6.6v1.2a14,14,0,0,1-1.5,6.6,11.63,11.63,0,0,1-4.3,4.5,12.06,12.06,0,0,1-6.3,1.6Zm9.5-11.7h-4v7.3h2.6a6.14,6.14,0,0,0,5-2.1,9.84,9.84,0,0,0,1.7-6.1V71c0-2.7-.6-4.8-1.7-6.1a5.94,5.94,0,0,0-4.9-2.1h-2.7v7.1h4Z" transform="translate(-10 -28)"/><path class="cls-9" d="M153.8,79.3h-9.6l-1.8,5.5h-5.8l9.9-26.6h5.1l10,26.6h-5.8Zm1.6-28a5.07,5.07,0,0,1-1.7,3.9,7.8,7.8,0,0,1-9.2,0,4.75,4.75,0,0,1-1.7-3.9h3.7a2.14,2.14,0,0,0,.7,1.8,3.31,3.31,0,0,0,3.8,0,2.48,2.48,0,0,0,.7-1.8Zm-9.7,23.6h6.6l-3.3-10Z" transform="translate(-10 -28)"/><path class="cls-9" d="M185.6,84.8h-5.5L169.4,67.3V84.8h-5.5V58.2h5.5l10.7,17.5V58.2h5.5Z" transform="translate(-10 -28)"/><path class="cls-9" d="M211.4,81.4a9,9,0,0,1-4.2,2.7,16.43,16.43,0,0,1-6,1,12.26,12.26,0,0,1-6.1-1.5,10.07,10.07,0,0,1-4-4.4,17.37,17.37,0,0,1-1.5-6.7V70.7a16,16,0,0,1,1.3-6.9,10.68,10.68,0,0,1,3.9-4.5,11.5,11.5,0,0,1,5.9-1.5,11.1,11.1,0,0,1,7.4,2.3c1.8,1.5,2.8,3.7,3.2,6.6H206a4.61,4.61,0,0,0-5-4.4,4.92,4.92,0,0,0-4.3,2.1,10.71,10.71,0,0,0-1.5,6.2v1.7c0,2.8.5,4.9,1.6,6.3a5.54,5.54,0,0,0,4.7,2.1c2.1,0,3.5-.4,4.4-1.3V74.8h-5v-4h10.5V81.4Z" transform="translate(-10 -28)"/><path class="cls-9" d="M233.5,74.1l-2.8,3.1v7.6h-5.5V58.2h5.5V70.3l2.4-3.3,6.8-8.7h6.7L237.1,70l9.7,14.8h-6.5Z" transform="translate(-10 -28)"/><path class="cls-9" d="M258.1,70.2l5.5-12h6l-8.7,17v9.6h-5.6V75.2l-8.7-17h6Zm1.1-19.1H265l-5.1,5.7h-4.3Z" transform="translate(-10 -28)"/></svg>