<svg id="Capa_1" data-name="Capa 1" xmlns="http://www.w3.org/2000/svg" viewBox="0 0 512 336.21"><defs><style>.cls-1{fill:#094ca0;}.cls-2{fill:#fff;}.cls-3{fill:#ec1c24;}</style></defs><title>england-edit</title><rect class="cls-1" width="512" height="336.21"/><path class="cls-2" d="M512,78.89H447.94L314.55,166.36V78.89H197.08V170l-141-91.07H0v45.47L101.12,190H0V306.46H100.3L0,372.55v42.56H66.36l130.72-86v86H314.55V327.56l135.06,87.55H512V373L409.24,306.46H512V190H409.75L512,122.74Z" transform="translate(0 -78.89)"/><path class="cls-3" d="M164.82,190,0,78.89v29.32L123.14,190Z" transform="translate(0 -78.89)"/><path class="cls-3" d="M347.41,306.46,512,415.11h0V387.83L389.09,306.46Z" transform="translate(0 -78.89)"/><path class="cls-3" d="M197.08,306.46h-33.9L0,415.11H39.08l158-103.32Z" transform="translate(0 -78.89)"/><path class="cls-3" d="M314.55,190h31.57L512,81.61V78.89H474.67L314.55,183.13Z" transform="translate(0 -78.89)"/><polygon class="cls-3" points="512 135.81 289.38 135.81 289.38 0 222.25 0 222.25 135.81 0 135.81 0 202.85 222.25 202.85 222.25 336.21 289.38 336.21 289.38 202.85 512 202.85 512 135.81"/></svg>