<svg xmlns="http://www.w3.org/2000/svg" viewBox="0 0 7.03 7.03"><defs><style>.cls-1{fill:#fff;}</style></defs><title>facebook</title><g id="Layer_2" data-name="Layer 2"><g id="Layer_1-2" data-name="Layer 1"><path class="cls-1" d="M3.51,7H1a1.2,1.2,0,0,1-.91-.67A2.4,2.4,0,0,1,0,6V1.06S0,1,0,1A1.24,1.24,0,0,1,1.23,0H5.82A1.21,1.21,0,0,1,7,1.22v4.6A1.15,1.15,0,0,1,6.35,6.9,1.55,1.55,0,0,1,6,7H4.61V4.43a.09.09,0,0,1,0,0H5.77V3.2H4.61V2.69a.27.27,0,0,1,.29-.27h.87V1.26c-.34,0-.68,0-1,0a1,1,0,0,0-.23,0,1.43,1.43,0,0,0-.95,1A2.11,2.11,0,0,0,3.51,3v.26H2.66s0,0,0,0c0,.35,0,.71,0,1.06,0,0,0,.06.06.06h.8Z"/></g></g></svg>