<?xml version="1.0" encoding="utf-8"?>
<!-- Generator: Adobe Illustrator 22.0.0, SVG Export Plug-In . SVG Version: 6.00 Build 0)  -->
<svg version="1.1" id="Layer_1" xmlns="http://www.w3.org/2000/svg" xmlns:xlink="http://www.w3.org/1999/xlink" x="0px" y="0px"
	 viewBox="0 0 1600 600" style="enable-background:new 0 0 1600 600;" xml:space="preserve">
<style type="text/css">
	.st0{fill:#32444D;}
</style>
<g id="XMLID_17_">
	<g>
		<g id="XMLID_27_">
			<path class="st0" d="M174.2,365c10.9-0.4,52.9-3.2,84.9-36.6c4.1-4.3,47.1-50.5,30-100.9c-1.4-4.3-11-31.1-38.6-45.2
				c-31-15.9-62.3-4.1-74.4,0.4c-25.9,9.7-40.9,26.7-46.8,33.5c-8.2,9.5-26,30.8-28.4,63.5c-0.8,10.8-1.4,41.8,20.3,69
				c18.7,23.5,43.6,30.9,54.2,33.9c12.1,3.4,21.7,3.9,28.8,4.3c2.2,0.1,41.3,1.6,77.1-14c65.6-28.6,93.9-102.5,93.9-110.3
				c0,16,2.3,17.1-2.3,40.5c-2.9,13.6-9.6,36.8-26.9,60.4c-3.5,4.8-17.9,23.9-43.6,40.5c-34.5,22.3-68,26.3-81,27.3
				c-15.1,1.1-49.4,3.3-86.5-16c-12-6.2-41-21.8-59.6-56.5c-19.8-36.9-15.3-72-13.6-83.4c5.3-36.6,23.6-60.6,31.2-70.1
				c21.6-27.5,46.6-40,58.8-46c26.6-13,49.9-16.2,59.6-17.1c16.6-1.7,34-3.4,54.9,3.9c7.1,2.5,32.8,11.8,50.3,38.2
				c10,15.1,12.8,29.1,14.8,39.4c2.3,12.1,8.4,46.6-10.5,83c-3,5.7-16.9,31.3-47.5,49.1c-9,5.2-33.1,18.8-65.8,16.8
				C193.2,371.5,181.8,368,174.2,365z"/>
		</g>
		<g id="XMLID_26_">
			
				<ellipse transform="matrix(0.6754 -0.7375 0.7375 0.6754 -146.4044 240.8357)" class="st0" cx="200.4" cy="286.7" rx="70.1" ry="42.8"/>
		</g>
	</g>
</g>
<g id="XMLID_5_">
	<path id="XMLID_743_" class="st0" d="M497.7,180.6c2,0,2.9,1,2.9,3v13.1c0,2-1,3-2.9,3h-55.7c-3.3,0-6.1,0.3-8.2,0.9
		c-2.2,0.6-3.9,1.6-5.2,3c-1.3,1.4-2.2,3.4-2.7,5.8c-0.5,2.4-0.8,5.5-0.8,9.1v1.4h72c1.9,0,2.8,1,2.8,3V234c0,2-0.9,3-2.8,3h-72v2.4
		c0,3.6,0.3,6.6,0.8,9.1c0.5,2.4,1.4,4.4,2.7,5.8c1.3,1.4,3.1,2.4,5.2,3c2.2,0.6,4.9,0.9,8.2,0.9h55.7c2,0,2.9,1,2.9,3v13.1
		c0,2-1,3-2.9,3h-56.1c-6.5,0-11.9-0.6-16.4-1.9c-4.5-1.3-8.2-3.4-11-6.3c-2.8-2.9-4.9-6.7-6.2-11.3c-1.3-4.7-2-10.3-2-16.9v-23.8
		c0-6.6,0.7-12.3,2-16.9c1.3-4.6,3.4-8.4,6.2-11.3c2.8-2.9,6.5-5,11-6.4c4.5-1.3,10-2,16.4-2H497.7z"/>
	<path id="XMLID_745_" class="st0" d="M583,180.6c9.8,0,16.8,2.4,21,7.2c4.2,4.8,6.4,11.9,6.4,21.3v10.2c0,9.4-2.1,16.5-6.4,21.3
		c-4.3,4.8-11.3,7.2-21,7.2h-52.8v26.6c0,2-0.9,3-2.8,3h-13.8c-2,0-2.9-1-2.9-3v-89.6c0-2.8,1.3-4.1,3.8-4.1H583z M530.2,229.5H579
		c4.3,0,7.4-1,9.2-3c1.8-2,2.7-5.1,2.7-9.3V212c0-4.1-0.9-7.2-2.7-9.3c-1.8-2-4.8-3-9.2-3h-47.2c-1.1,0-1.7,0.6-1.7,1.7V229.5z"/>
	<path id="XMLID_748_" class="st0" d="M662.3,180.6c3.2,0,5.9,0.7,8.2,2.1c2.2,1.4,4.4,4.2,6.5,8.4l42.2,83.1
		c0.4,0.9,0.5,1.7,0.3,2.3c-0.2,0.6-0.8,0.9-1.8,0.9h-16.2c-1.4,0-2.4-0.6-2.9-1.8l-9.1-17.8h-59.9l-8.8,17.8
		c-0.6,1.2-1.6,1.8-2.9,1.8h-16.6c-1.1,0-1.8-0.3-2-0.9c-0.2-0.6-0.1-1.4,0.3-2.3l41.8-83.1c2.1-4.1,4.2-6.9,6.2-8.4
		c2-1.4,4.4-2.1,7.1-2.1H662.3z M637.5,241.7h43.9l-20.3-40.5c-0.3-0.6-0.8-1-1.4-1H659c-0.6,0-1.1,0.3-1.4,1L637.5,241.7z"/>
	<path id="XMLID_751_" class="st0" d="M736.7,180.6c1.9,0,2.8,1,2.8,3v55.2c0,3.7,0.3,6.8,0.8,9.2c0.6,2.4,1.5,4.4,2.7,5.8
		c1.3,1.4,3,2.4,5.2,3c2.2,0.6,4.9,0.9,8.2,0.9h51.6c1.9,0,2.8,1,2.8,3v13.6c0,2-0.9,3-2.8,3h-52.4c-6.5,0-11.9-0.6-16.4-1.9
		c-4.5-1.3-8.2-3.4-11-6.3c-2.8-2.9-4.9-6.7-6.2-11.3c-1.3-4.7-2-10.3-2-16.9v-57.3c0-2,1-3,2.9-3H736.7z"/>
</g>
<g id="XMLID_6_">
	<path id="XMLID_724_" class="st0" d="M935.8,180.6c2,0,3,1,3,3v13.1c0,2-1,3-3,3h-69.3c-2.7,0-4.6,0.7-5.7,2.1
		c-1.1,1.4-1.7,3.3-1.7,5.7v4.7c0,5.2,2.4,7.7,7.2,7.7h51.9c8,0,14.1,2.1,18.1,6.2c4.1,4.1,6.1,10,6.1,17.6v11.1
		c0,6.7-2,12.2-5.9,16.3c-4,4.1-10.1,6.2-18.5,6.2h-76.6c-2.1,0-3.2-1-3.2-3v-13.1c0-2,1.1-3,3.2-3H914c2.7,0,4.6-0.7,5.7-2.1
		c1.1-1.4,1.7-3.3,1.7-5.7v-5.7c0-5.2-2.4-7.7-7.2-7.7h-51.9c-8,0-14.1-2.1-18.1-6.2c-4.1-4.1-6.1-10-6.1-17.6v-10.1
		c0-6.7,2-12.2,5.9-16.3c4-4.1,10.1-6.2,18.5-6.2H935.8z"/>
	<path id="XMLID_726_" class="st0" d="M1023.7,201.5c6.2,0,11.4,0.5,15.6,1.6c4.2,1.1,7.6,2.7,10.2,5c2.5,2.3,4.4,5.2,5.5,8.7
		c1.1,3.6,1.7,7.8,1.7,12.8v19.9c0,5-0.6,9.2-1.7,12.8c-1.1,3.6-2.9,6.5-5.5,8.7c-2.5,2.3-5.9,3.9-10.2,4.9c-4.2,1-9.5,1.5-15.6,1.5
		h-39.1c-6.3,0-11.5-0.5-15.7-1.5c-4.2-1-7.6-2.6-10.1-4.9c-2.5-2.3-4.4-5.2-5.5-8.7c-1.1-3.5-1.7-7.8-1.7-12.8v-19.9
		c0-5,0.6-9.2,1.7-12.8c1.1-3.5,2.9-6.5,5.5-8.7c2.5-2.3,5.9-3.9,10.1-5c4.2-1.1,9.4-1.6,15.7-1.6H1023.7z M971.4,246
		c0,3,0.2,5.4,0.7,7.3c0.5,1.9,1.3,3.5,2.4,4.6c1.2,1.2,2.7,2,4.6,2.5c1.9,0.5,4.4,0.8,7.3,0.8h35.3c3,0,5.5-0.3,7.5-0.8
		c1.9-0.5,3.5-1.3,4.6-2.5c1.2-1.2,2-2.7,2.4-4.6c0.5-1.9,0.7-4.4,0.7-7.3v-13.1c0-2.9-0.2-5.3-0.7-7.2c-0.5-1.9-1.3-3.5-2.4-4.7
		c-1.2-1.2-2.7-2-4.6-2.5c-1.9-0.5-4.4-0.7-7.5-0.7h-35.3c-3,0-5.4,0.2-7.3,0.7c-1.9,0.5-3.5,1.3-4.6,2.5c-1.2,1.2-2,2.8-2.4,4.7
		c-0.5,1.9-0.7,4.3-0.7,7.2V246z"/>
	<path id="XMLID_729_" class="st0" d="M1084.6,173.7c2,0,3,1,3,3v97.6c0,2-1,3-3,3h-13.6c-2,0-3-1-3-3v-97.6c0-2,1-3,3-3H1084.6z"/>
	<path id="XMLID_731_" class="st0" d="M1116.6,201.5c2,0,3,1.1,3,3.2v40c0,3,0.2,5.4,0.6,7.3c0.4,1.9,1.1,3.5,2.1,4.6
		c1,1.2,2.4,2,4.3,2.5c1.8,0.5,4.3,0.8,7.3,0.8h35.5c3,0,5.5-0.3,7.5-0.8c1.9-0.5,3.5-1.3,4.6-2.5c1.2-1.2,2-2.7,2.4-4.6
		c0.5-1.9,0.7-4.4,0.7-7.3v-40c0-2.1,1-3.2,3-3.2h13.6c2,0,3,1.1,3,3.2v44.8c0,5-0.6,9.2-1.7,12.8c-1.1,3.6-2.9,6.5-5.5,8.7
		c-2.5,2.3-5.9,3.9-10.2,4.9c-4.2,1-9.5,1.5-15.6,1.5h-38.6c-6.3,0-11.5-0.5-15.7-1.5c-4.2-1-7.6-2.6-10.1-4.9
		c-2.5-2.3-4.4-5.2-5.5-8.7c-1.1-3.5-1.7-7.8-1.7-12.8v-44.8c0-2.1,1.1-3.2,3.2-3.2H1116.6z"/>
	<path id="XMLID_733_" class="st0" d="M1225.7,201.5v-18.3c0-2,1-3,3-3h13.7c2,0,3,1,3,3v18.3h24.2c1.7,0,2.5,0.8,2.5,2.5v11.3
		c0,1.7-0.8,2.5-2.5,2.5h-24.2v32.1c0,3.9,0.8,6.7,2.4,8.5c1.6,1.8,4.7,2.7,9.3,2.7h13.4c1.7,0,2.5,0.8,2.5,2.5v11.3
		c0,1.7-0.8,2.5-2.5,2.5h-16.7c-5.5,0-10.1-0.5-13.7-1.5c-3.6-1-6.5-2.6-8.6-4.8c-2.2-2.2-3.7-5.1-4.5-8.6
		c-0.8-3.5-1.2-7.7-1.2-12.6v-32.1h-13.1c-1.7,0-2.5-0.8-2.5-2.5v-11.3c0-1.7,0.8-2.5,2.5-2.5H1225.7z"/>
	<path id="XMLID_735_" class="st0" d="M1296,173.4c2,0,3,1,3,3v13.1c0,2.1-1,3.2-3,3.2h-13.6c-2.1,0-3.2-1.1-3.2-3.2v-13.1
		c0-2,1.1-3,3.2-3H1296z M1296,201.5c2,0,3,1.1,3,3.2v69.7c0,2-1,3-3,3h-13.6c-2,0-3-1-3-3v-69.7c0-2.1,1-3.2,3-3.2H1296z"/>
	<path id="XMLID_738_" class="st0" d="M1382.4,201.5c6.2,0,11.4,0.5,15.6,1.6c4.2,1.1,7.6,2.7,10.2,5c2.5,2.3,4.4,5.2,5.5,8.7
		c1.1,3.6,1.7,7.8,1.7,12.8v19.9c0,5-0.6,9.2-1.7,12.8c-1.1,3.6-2.9,6.5-5.5,8.7c-2.5,2.3-5.9,3.9-10.2,4.9c-4.2,1-9.5,1.5-15.6,1.5
		h-39.1c-6.3,0-11.5-0.5-15.7-1.5c-4.2-1-7.6-2.6-10.1-4.9c-2.5-2.3-4.4-5.2-5.5-8.7c-1.1-3.5-1.7-7.8-1.7-12.8v-19.9
		c0-5,0.6-9.2,1.7-12.8c1.1-3.5,2.9-6.5,5.5-8.7c2.5-2.3,5.9-3.9,10.1-5c4.2-1.1,9.4-1.6,15.7-1.6H1382.4z M1330.1,246
		c0,3,0.2,5.4,0.7,7.3c0.5,1.9,1.3,3.5,2.4,4.6c1.2,1.2,2.7,2,4.6,2.5c1.9,0.5,4.4,0.8,7.3,0.8h35.3c3,0,5.5-0.3,7.5-0.8
		c1.9-0.5,3.5-1.3,4.6-2.5c1.2-1.2,2-2.7,2.4-4.6c0.5-1.9,0.7-4.4,0.7-7.3v-13.1c0-2.9-0.2-5.3-0.7-7.2c-0.5-1.9-1.3-3.5-2.4-4.7
		c-1.2-1.2-2.7-2-4.6-2.5c-1.9-0.5-4.4-0.7-7.5-0.7h-35.3c-3,0-5.4,0.2-7.3,0.7c-1.9,0.5-3.5,1.3-4.6,2.5c-1.2,1.2-2,2.8-2.4,4.7
		c-0.5,1.9-0.7,4.3-0.7,7.2V246z"/>
	<path id="XMLID_741_" class="st0" d="M1498.8,201.5c6.2,0,11.4,0.5,15.6,1.6c4.2,1.1,7.6,2.7,10.2,5c2.5,2.3,4.4,5.2,5.5,8.7
		c1.1,3.6,1.7,7.8,1.7,12.8v44.8c0,2-1,3-3,3h-13.6c-2,0-3-1-3-3v-40.1c0-2.9-0.2-5.3-0.6-7.3c-0.4-2-1.1-3.5-2.1-4.7
		c-1.1-1.2-2.5-2-4.4-2.5c-1.8-0.5-4.2-0.8-7.2-0.8h-36.8c-3,0-5.4,0.3-7.3,0.8c-1.9,0.5-3.5,1.3-4.6,2.5c-1.2,1.2-2,2.7-2.4,4.7
		c-0.5,2-0.7,4.4-0.7,7.3v40.1c0,2-1,3-3,3h-13.6c-2.1,0-3.2-1-3.2-3v-44.8c0-5,0.6-9.2,1.7-12.8c1.1-3.5,2.9-6.5,5.5-8.7
		c2.5-2.3,5.9-3.9,10.1-5c4.2-1.1,9.4-1.6,15.7-1.6H1498.8z"/>
</g>
<g id="XMLID_7_">
	<path id="XMLID_183_" class="st0" d="M456,368.1c0,15.8-9.1,28.9-24.4,28.9s-24.4-13.1-24.4-28.9c0-15.8,9.1-28.9,24.4-28.9
		S456,352.4,456,368.1z M416.1,368.1c0,10.6,4.6,21,15.5,21c10.9,0,15.5-10.4,15.5-21c0-10.6-4.6-21-15.5-21
		C420.7,347.1,416.1,357.5,416.1,368.1z"/>
	<path id="XMLID_675_" class="st0" d="M503.2,395.7h-8v-5.6H495c-2,4-6.4,6.6-10.5,6.6c-9.6,0-13.8-5.3-13.8-15.7v-25.4h8.1v24.5
		c0,7,2.6,9.6,7.1,9.6c6.8,0,9.1-4.7,9.1-10.9v-23.2h8.1V395.7z"/>
	<path id="XMLID_677_" class="st0" d="M519.4,355.8h7.6v7.7h0.1c0.9-4.3,5.8-8.8,10.8-8.8c1.9,0,2.4,0.2,3.1,0.2v8.5
		c-1.1-0.2-2.4-0.4-3.5-0.4c-5.6,0-10,4.9-10,13.7v19h-8.1V355.8z"/>
	<path id="XMLID_679_" class="st0" d="M586.9,377.3c0,8.5,5.8,11.8,12.9,11.8c7.9,0,10.8-4.2,10.8-8.3c0-4.3-2.1-6-4.2-6.8
		c-3.6-1.5-8.2-2.5-15.2-4.6c-8.7-2.6-11.3-8.3-11.3-14c0-11.1,9.4-16.2,18.6-16.2c10.6,0,19.6,6.1,19.6,17.6h-8.9
		c-0.4-7.1-4.9-9.7-11-9.7c-4.1,0-9.4,1.6-9.4,7.2c0,3.9,2.4,6,6.1,7.1c0.8,0.2,12.1,3.4,14.7,4.3c6.7,2.2,9.9,8.3,9.9,14.1
		c0,12.4-10.1,17.3-20.3,17.3c-11.6,0-21.1-6-21.3-19.7H586.9z"/>
	<path id="XMLID_681_" class="st0" d="M632.1,375.7c0-12.2,6.8-21,18.6-21c11.9,0,18.6,8.8,18.6,21c0,12.3-6.8,21.1-18.6,21.1
		C638.9,396.8,632.1,388,632.1,375.7z M661.3,375.7c0-6.9-3.2-14.1-10.5-14.1s-10.5,7.2-10.5,14.1c0,7,3.2,14.1,10.5,14.1
		S661.3,382.7,661.3,375.7z"/>
	<path id="XMLID_684_" class="st0" d="M684.1,340.5h8.1v55.2h-8.1V340.5z"/>
	<path id="XMLID_686_" class="st0" d="M741.2,395.7h-8v-5.6h-0.1c-2,4-6.4,6.6-10.5,6.6c-9.6,0-13.8-5.3-13.8-15.7v-25.4h8.1v24.5
		c0,7,2.6,9.6,7.1,9.6c6.8,0,9.1-4.7,9.1-10.9v-23.2h8.1V395.7z"/>
	<path id="XMLID_688_" class="st0" d="M753.8,355.8h6.1v-12h8.1v12h7.4v6.6h-7.4v21.3c0,3.6,0.3,5.5,3.9,5.5c1.1,0,2.3,0,3.4-0.3
		v6.8c-1.8,0.2-3.5,0.5-5.3,0.5c-8.5,0-10.1-3.6-10.2-10.2v-23.6h-6.1V355.8z"/>
	<path id="XMLID_690_" class="st0" d="M789.2,340.5h8.1v8.3h-8.1V340.5z M789.2,355.8h8.1v40h-8.1V355.8z"/>
	<path id="XMLID_693_" class="st0" d="M812.2,375.7c0-12.2,6.8-21,18.6-21s18.6,8.8,18.6,21c0,12.3-6.8,21.1-18.6,21.1
		S812.2,388,812.2,375.7z M841.4,375.7c0-6.9-3.2-14.1-10.5-14.1s-10.5,7.2-10.5,14.1c0,7,3.2,14.1,10.5,14.1
		S841.4,382.7,841.4,375.7z"/>
	<path id="XMLID_696_" class="st0" d="M864,355.8h7.7v5.9l0.1,0.2c2.4-4.4,6.6-7.1,11.5-7.1c8,0,13.1,4.6,13.1,13.6v27.4h-8.1v-25.1
		c-0.1-6.3-2.4-9-7.2-9c-5.4,0-8.9,4.6-8.9,10.5v23.6H864V355.8z"/>
	<path id="XMLID_698_" class="st0" d="M939.5,370.5h20.8v8.3h-20.8V370.5z"/>
	<path id="XMLID_700_" class="st0" d="M1017.8,374.1l-19.1-33.6h10.4l13.5,24.7l13.3-24.7h10l-19.1,33.6v21.6h-8.9V374.1z"/>
	<path id="XMLID_702_" class="st0" d="M1049,375.7c0-12.2,6.8-21,18.6-21s18.6,8.8,18.6,21c0,12.3-6.8,21.1-18.6,21.1
		S1049,388,1049,375.7z M1078.2,375.7c0-6.9-3.2-14.1-10.5-14.1s-10.5,7.2-10.5,14.1c0,7,3.2,14.1,10.5,14.1
		S1078.2,382.7,1078.2,375.7z"/>
	<path id="XMLID_705_" class="st0" d="M1133.2,395.7h-8v-5.6h-0.1c-2,4-6.4,6.6-10.5,6.6c-9.6,0-13.8-5.3-13.8-15.7v-25.4h8.1v24.5
		c0,7,2.6,9.6,7.1,9.6c6.8,0,9.1-4.7,9.1-10.9v-23.2h8.1V395.7z"/>
	<path id="XMLID_707_" class="st0" d="M1149.5,355.8h7.6v7.7h0.1c0.9-4.3,5.8-8.8,10.8-8.8c1.9,0,2.4,0.2,3.1,0.2v8.5
		c-1.1-0.2-2.4-0.4-3.5-0.4c-5.6,0-10,4.9-10,13.7v19h-8.1V355.8z"/>
	<path id="XMLID_709_" class="st0" d="M1216.9,377.3c0,8.5,5.8,11.8,12.9,11.8c7.9,0,10.8-4.2,10.8-8.3c0-4.3-2.1-6-4.2-6.8
		c-3.6-1.5-8.2-2.5-15.2-4.6c-8.7-2.6-11.3-8.3-11.3-14c0-11.1,9.4-16.2,18.6-16.2c10.6,0,19.6,6.1,19.6,17.6h-8.9
		c-0.4-7.1-4.9-9.7-11-9.7c-4.1,0-9.4,1.6-9.4,7.2c0,3.9,2.4,6,6.1,7.1c0.8,0.2,12.1,3.4,14.7,4.3c6.7,2.2,9.9,8.3,9.9,14.1
		c0,12.4-10.1,17.3-20.3,17.3c-11.6,0-21.1-6-21.3-19.7H1216.9z"/>
	<path id="XMLID_711_" class="st0" d="M1296.3,395.7h-8v-5.6h-0.1c-2,4-6.4,6.6-10.5,6.6c-9.6,0-13.8-5.3-13.8-15.7v-25.4h8.1v24.5
		c0,7,2.6,9.6,7.1,9.6c6.8,0,9.1-4.7,9.1-10.9v-23.2h8.1V395.7z"/>
	<path id="XMLID_713_" class="st0" d="M1337.5,369.1c-0.6-4.9-3.9-7.5-8.4-7.5c-4.2,0-10.1,2.4-10.1,14.5c0,6.6,2.7,13.7,9.8,13.7
		c4.7,0,8-3.4,8.8-9.1h8.1c-1.5,10.4-7.4,16.1-16.9,16.1c-11.6,0-17.9-8.9-17.9-20.6c0-12.1,6.1-21.5,18.2-21.5
		c8.6,0,15.9,4.6,16.6,14.5H1337.5z"/>
	<path id="XMLID_715_" class="st0" d="M1385,369.1c-0.6-4.9-3.9-7.5-8.4-7.5c-4.2,0-10.1,2.4-10.1,14.5c0,6.6,2.7,13.7,9.8,13.7
		c4.7,0,8-3.4,8.8-9.1h8.1c-1.5,10.4-7.4,16.1-16.9,16.1c-11.6,0-17.9-8.9-17.9-20.6c0-12.1,6.1-21.5,18.2-21.5
		c8.6,0,15.9,4.6,16.6,14.5H1385z"/>
	<path id="XMLID_717_" class="st0" d="M1413.8,378c0,6.3,3.1,11.8,9.9,11.8c4.7,0,7.6-2.2,9-6.6h7.7c-1.8,8.7-8.6,13.6-16.7,13.6
		c-11.6,0-18.1-8.7-18.1-21c0-11.4,6.9-21.1,17.9-21.1c11.6,0,18.8,11.4,17.4,23.3H1413.8z M1432.8,372.2
		c-0.3-5.6-3.8-10.6-9.3-10.6c-5.6,0-9.5,4.6-9.7,10.6H1432.8z"/>
	<path id="XMLID_720_" class="st0" d="M1461,382.9c0.4,5.1,4,7,8.4,7c3.1,0,8.4-0.7,8.2-5.3c-0.2-4.6-6.1-5.2-12.1-6.6
		c-6-1.4-11.9-3.7-11.9-11.8c0-8.7,8.7-11.4,15.4-11.4c7.6,0,14.4,3.4,15.4,12.3h-8.5c-0.7-4.2-3.9-5.3-7.5-5.3
		c-2.4,0-6.7,0.6-6.7,4.1c0,4.3,6,4.9,12,6.4c5.9,1.5,11.9,3.8,11.9,11.7c0,9.5-8.9,13-16.5,13c-9.3,0-16.2-4.5-16.4-13.9H1461z"/>
	<path id="XMLID_722_" class="st0" d="M1505.8,382.9c0.4,5.1,4,7,8.4,7c3.1,0,8.4-0.7,8.2-5.3c-0.2-4.6-6.1-5.2-12.1-6.6
		c-6-1.4-11.9-3.7-11.9-11.8c0-8.7,8.7-11.4,15.4-11.4c7.6,0,14.4,3.4,15.4,12.3h-8.5c-0.7-4.2-3.9-5.3-7.5-5.3
		c-2.4,0-6.7,0.6-6.7,4.1c0,4.3,6,4.9,12,6.4c5.9,1.5,11.9,3.8,11.9,11.7c0,9.5-8.9,13-16.5,13c-9.3,0-16.2-4.5-16.4-13.9H1505.8z"
		/>
</g>
</svg>
