<?xml version="1.0" encoding="utf-8"?>
<!-- Generator: Adobe Illustrator 21.1.0, SVG Export Plug-In . SVG Version: 6.00 Build 0)  -->
<svg version="1.1" id="Layer_1" xmlns="http://www.w3.org/2000/svg" xmlns:xlink="http://www.w3.org/1999/xlink" x="0px" y="0px"
	 viewBox="0 0 534.1 372" style="enable-background:new 0 0 534.1 372;" xml:space="preserve">
<style type="text/css">
	.st0{clip-path:url(#SVGID_2_);}
	.st1{fill:#BE1E2D;}
	.st2{fill:#58595B;}
</style>
<g>
	<defs>
		
			<rect id="SVGID_1_" x="433.1" y="194.3" transform="matrix(-0.8993 0.4374 -0.4374 -0.8993 1006.3568 232.5771)" width="86.6" height="75.7"/>
	</defs>
	<clipPath id="SVGID_2_">
		<use xlink:href="#SVGID_1_"  style="overflow:visible;"/>
	</clipPath>
	<g class="st0">
		<path id="XMLID_67_" class="st1" d="M448.6,369.5l9.1,19.7c0,0,1.3,3.1,3.2,2.1c1.1-0.6,3.5-1.6,7.7-2.5
			c6.4-1.4,36.2-10.6,39.6-33.4c3.3-22.8-12.2-35.7-20-39.6c-8.9-4.6-26.5-9.2-33.9-11.3c-8.3-2.3-27-4.8-35.7-19.6
			c-8.7-14.9-3.5-36.7,11.7-43.7c9.1-4.2,19.3-0.4,28.4,1.8c10.1,2.5,21.1,2.1,29.9-3.8c12.8-8.6,15.3-27.4,4.8-38.8
			c-1.2-1.3-2.5-2.4-4.1-3.2c-4-2.1-8.8-2.9-13-0.9c-5.4,2.6-4.6,8.3-1.4,10.8c1,0.8,3.8,1.9,4.5,0.7c0.2-0.5-1.2-1.5-1.6-2
			c-2.1-2.6,0.4-5,3.4-5.7c2.8-0.6,4.8-0.4,7.4,0.7c0.7,0.3,3.4,1.9,5.3,5.5c1.9,3.6,2.1,6.2,1.8,6.5c-0.9,1-2.3,0.3-3.2-0.5
			c-1-0.8-9.3-4.6-14.6,1.3c-1.4,1.9,1.3,2.9,2.8,3.1c1.8,0.3,3.6,0,5.2-1c1.6-0.9,3-1.4,4.9-1.1c2.4,0.4,4.1,2.2,4.9,4.4
			c1.8,4.6-0.7,9.8-3.6,13.4c-3.3,4-8,6.5-12.8,8.2c-9.6,3.4-19.8,0.1-29.3-1.8c-6.7-1.3-14-1.5-20.3,1.5
			c-3.9,1.8-9.6,5.8-13.6,10.4c-2.5,2.9-6.1,8.3-7.1,10.3c-3.4,6.7-9.4,20.8,1.6,39.7c12.7,16.8,25.4,20.5,58.4,26.9
			c16,2.2,28.8,11.5,29.3,26.6c0.1,2.4-1.7,8.9-2.9,10.9c-6.5,10.9-21,14.4-29.1,13.6c-8-0.9-12.3-5.2-14.9-11.3c0,0-1.5-1-2.7,0.3
			C448.1,368.5,448.6,369.5,448.6,369.5z"/>
		<path id="XMLID_66_" class="st1" d="M469,248.1c-0.7-0.7-1-1.6-2-1.8c-2.5-0.6-3.2,4.5-2.9,6c0.7,3.4,3.9,5.3,7.3,4.7
			c3.1-0.5,7.4-5.2,5.5-4.1c-1,0.6-3,1.7-4.6,2c-1.8,0.3-2.5-0.9-2.4-1.8c0.2-1.3,1.9-1.9,2.4-3.1c0.5-1-0.2-2.4-1.5-2.3
			C470.3,247.7,469.2,248.2,469,248.1z"/>
		<path id="XMLID_65_" class="st1" d="M472.7,237.1c0.3-0.1,0.6-0.2,0.9-0.5c0.9-1.1-1.1-1.6-1.9-1.9c-1.1-0.3-2.3-0.1-3.1,0.7
			c-1.4,1.3-2.6-0.3-2-1.7c0.4-1,0.9-1.7,2-1.9c1-0.2,2.1,0.1,3,0.4c0.9,0.3,2.6,1.7,3.5,0.7c1-1.1-1.1-2.7-2-3
			c-1.2-0.4-4.7-2.5-9,0.5c-6.4,4.3,2.6,11,3.6,9.7c0.6-0.8,1.2-2.3,2.1-2.9C470.6,236.5,471.7,237.3,472.7,237.1z"/>
		<path id="XMLID_64_" class="st1" d="M431.6,237.4c0,0-1.6,0.1-1.1-1.3c0.5-1.2,5.2-1.6,4.9-6c-0.1-1,4.2,1.3,3.3,3
			c-0.1,0.2,1.3-0.3,2.7-1.6c1.3-1.2,2.5-3.2,2.6-3.2C444.4,228.3,444.3,236.8,431.6,237.4z"/>
		<path id="XMLID_63_" class="st1" d="M446.4,251.3c0,0-11-1.4-11.5-7.7c0.4-1.5,3.5-0.2,7.1-0.1c0.6,3,1,3.4,2.3,5.1
			C445,249.5,447.5,251.2,446.4,251.3z"/>
		<path id="XMLID_62_" class="st1" d="M497,234.1c0,0,1.9-7.3,8-7.7c3.2-0.2,5.9,0.8,6.9,1.3c0.3,0.1,0.6,0.4,0.7,0.6
			c0.2,0.5,0.1,1.3-1.8,1.4c-1.2,0-4.5-0.4-2.8,1.7c0.5,0.6,2.2,1.1,2.9,1.6c3.2,2.4,2.5,7.4,1.7,9c-1,1.9-3.3,4.4-3.5,1.9
			c-0.2-2.6,0.5-11.3-6-9.8C497.6,235.4,497,234.1,497,234.1z"/>
		<path id="XMLID_61_" class="st1" d="M510.1,230.9c0,0,6.9,3.6,9.4,15.1c0,0,1.3-5.7,0.3-9.1C518.1,231.2,510.1,230.5,510.1,230.9z
			"/>
	</g>
</g>
<g id="XMLID_27_">
	<path id="XMLID_18_" class="st1" d="M317.3,162l0.4-21.7c0,0,0.2-3.3-2-3.3c-1.3,0-3.8-0.1-8-1.1c-6.4-1.5-37.2-6.4-50.2,12.7
		c-13,19.1-4.6,37.4,0.7,44.4c6,8.1,19.8,19.9,25.5,24.9c6.4,5.7,22.2,16.1,23.5,33.3c1.3,17.2-12.9,34.5-29.6,34.2
		c-10.1-0.2-17.5-8-24.7-14c-8-6.6-18-11.1-28.6-9.7c-15.3,2.1-25.8,18-21.3,32.8c0.5,1.7,1.2,3.3,2.3,4.7c2.7,3.7,6.6,6.5,11.3,6.5
		c6,0,7.8-5.4,6-9.1c-0.6-1.1-2.6-3.4-3.7-2.6c-0.4,0.3,0.4,1.8,0.6,2.5c0.7,3.2-2.6,4.3-5.5,3.6c-2.8-0.7-4.5-1.8-6.3-3.8
		c-0.5-0.6-2.2-3.2-2.3-7.3c-0.1-4.1,0.8-6.5,1.3-6.6c1.2-0.5,2.2,0.7,2.7,1.8c0.5,1.2,6.4,8.2,13.7,5.2c2.1-1.1,0-3.1-1.1-4
		c-1.5-1-3.2-1.6-5.1-1.4c-1.8,0.1-3.3-0.1-4.8-1.2c-2-1.4-2.7-3.7-2.5-6.1c0.4-4.9,5-8.5,9.1-10.4c4.7-2.2,10-2.3,15.1-1.8
		c10.1,1.1,17.8,8.5,25.5,14.4c5.4,4.1,11.9,7.4,18.9,7.5c4.3,0.1,11.1-1,16.8-3.4c3.5-1.5,9.1-4.8,10.9-6.1
		c6-4.5,17.5-14.6,15.9-36.4c-4-20.7-13.9-29.6-40.8-49.8c-13.4-9-20.9-23-14.7-36.7c1-2.2,5.4-7.2,7.4-8.5
		c10.7-7,25.2-3.8,32.1,0.5c6.8,4.3,8.8,10.1,8.4,16.7c0,0,0.9,1.6,2.5,0.9C317.2,163.1,317.3,162,317.3,162z"/>
	<path id="XMLID_17_" class="st1" d="M245.8,262.2c0.4,0.9,0.2,1.8,1,2.5c1.9,1.6,4.9-2.6,5.3-4.1c0.9-3.4-1.2-6.4-4.5-7.4
		c-3-0.9-8.9,1.5-6.7,1.3c1.2-0.1,3.5-0.2,5,0.2c1.7,0.5,1.9,2,1.4,2.6c-0.7,1.1-2.5,0.9-3.5,1.7c-0.9,0.7-0.9,2.2,0.4,2.8
		C244.4,261.9,245.7,262,245.8,262.2z"/>
	<path id="XMLID_16_" class="st1" d="M237.7,270.5c-0.3-0.1-0.6-0.1-1,0.1c-1.3,0.6,0.3,2,0.9,2.5c0.8,0.8,2,1.1,3.1,0.8
		c1.8-0.5,2.2,1.4,1,2.5c-0.8,0.7-1.5,1.1-2.6,0.8c-1-0.3-1.8-1-2.5-1.7c-0.7-0.6-1.7-2.6-2.9-2.2c-1.4,0.5-0.2,2.9,0.5,3.6
		c0.9,0.9,3.2,4.3,8.3,3.5c7.6-1.1,2.5-11.1,1.1-10.3c-0.9,0.4-2.1,1.5-3.1,1.7C239.3,271.9,238.6,270.7,237.7,270.5z"/>
	<path id="XMLID_15_" class="st1" d="M274.7,288.2c0,0,1.5,0.6,0.4,1.6c-1,0.9-5.4-0.9-7,3.2c-0.4,0.9-3.2-3-1.7-4.2
		c0.2-0.1-1.3-0.3-3.2,0.3c-1.7,0.5-3.7,1.8-3.8,1.7C259.2,290.8,263.1,283.2,274.7,288.2z"/>
	<path id="XMLID_14_" class="st1" d="M267.5,269.2c0,0,9.2,6.1,6.9,12c-1,1.2-3.2-1.4-6.4-3c0.7-2.9,0.6-3.5,0.2-5.6
		C268,271.5,266.5,268.8,267.5,269.2z"/>
	<path id="XMLID_13_" class="st1" d="M214.5,262.5c0,0-4.9,5.7-10.6,3.5c-3-1.2-4.9-3.3-5.6-4.2c-0.2-0.2-0.3-0.6-0.3-0.9
		c0.1-0.5,0.4-1.2,2.2-0.5c1.1,0.5,3.9,2.3,3.3-0.3c-0.2-0.8-1.5-1.9-1.9-2.7c-1.8-3.6,0.9-7.8,2.4-8.8c1.7-1.3,4.9-2.6,4-0.1
		c-0.9,2.4-5.4,10,1.1,11.4C214.5,261.2,214.5,262.5,214.5,262.5z"/>
	<path id="XMLID_12_" class="st1" d="M201.3,259.7c0,0-4.6-6.3-1.9-17.7c0,0-3.7,4.5-4.2,8C194.3,256,201.1,260.1,201.3,259.7z"/>
	<g id="XMLID_28_">
		<path id="XMLID_11_" class="st1" d="M320.3,283.1c0,0-1.3-1.6,1.4-1.9c2.7-0.3,5.9,0.1,7-7.3l0.2-81.2c0,0-0.1-6.4-10.3-6.2
			c-1.4,0.1-1.8-1,0.1-1.5c1.4-0.4,4-0.3,6.4-0.4c3.9,0.2,37.7,0.1,37.7,0.1s32.8,0.9,23.1,34.7c-8.5,23.2-37.7,19.3-37.7,19.3
			s-3.2-1.4,2.1-2.5c5.3-1.2,30.7-2.8,24.9-28.5c-4.9-18.4-18.9-18.6-18.9-18.6s-6.8-0.1-11.1,0c-2.9,0.1-3.9,2.4-4,5
			c-0.2,7.9,0.7,79.1,0.7,79.1s-0.8,7.5,8.7,7.5c4,0.7,2.4,2.6,2.4,2.6H320.3z"/>
		<g id="XMLID_36_">
			<path id="XMLID_37_" class="st1" d="M460,281.4c-11.4,1.2-15.4-10.6-15.4-10.6s-36.4-86.3-36.9-88.4c-0.5-2.1-2.8-0.9-2.8-0.9
				s-25.8,64.3-32.1,83.3c-6.2,19.1-14.9,14.9-17.8,15.8c-2.9,0.9-1.2,2.5-1.2,2.5l31.5,0c0,0,1.4-2.1-3.6-2
				c-6.1,0.1-3.6-6.1-3.6-6.1s8.1-20.4,9.7-24.9c1.3-3.8,3.2-3.1,3.2-3.1s23.6,0.2,27-0.2c3.5-0.3,3.8,2.8,3.8,2.8l12.5,30
				c-4.3,2.9-1.2,3.5-1.2,3.5s21.8-0.1,24.6,0C460.4,283.2,461.8,281.9,460,281.4z M416.2,241.9c-3.2,0.2-23.9,0-23.9,0
				s-2.2-1.1-0.6-4.6c1.9-4.2,11.1-32,11.1-32s0.5-3.1,1.5-2.4l13.9,36.3C418.1,239.2,419.4,241.7,416.2,241.9z"/>
		</g>
	</g>
</g>
<g id="XMLID_26_">
	<g id="XMLID_35_">
		<g id="XMLID_41_">
			<path id="XMLID_42_" class="st1" d="M259.4,60.2c4.8,1.2,12.8,14.4,16.2,26c2,6.7,2.1,12.2,1.6,16.4c4.1-7.2,9.4-20,6.9-36.6
				c-0.7-4.6-2.3-9.1-4.5-13.2c-3.4-6.4-8.3-12.1-13.8-16.8c-5.2-4.4-10.2-8.2-16.7-10.5c-2.5,3.2-4.4,7-6.1,11.5
				c-4.8,12.9-6,27.5-1.9,40.3c4.4,13.5,16.4,22.7,24.3,27.6c-2.4-3.2-4.7-7.4-6.2-13C255,75.7,257.2,61.9,259.4,60.2z"/>
		</g>
		<g id="XMLID_39_">
			<path id="XMLID_40_" class="st1" d="M256.3,113.4c-10.5-0.9-18.2-5.1-18.7-6.7c1.7-2.6,11.2-4.5,18.8-4.1
				c3.5,0.2,6.3,0.9,8.6,1.9c-4-5.2-12.1-13.4-25.7-16.5c-3.6-0.8-7.5-1-11.2-0.6c-5.8,0.7-11.5,2.6-16.7,5.3
				c-4.9,2.6-9.1,5.2-12.8,9.3c1.7,2.8,3.9,5.4,6.8,8c8.2,7.4,18.7,12.7,29.6,13.4c11.6,0.7,22.3-5.8,28.2-10.3
				C261.2,113.4,258.9,113.6,256.3,113.4z"/>
		</g>
		<path id="XMLID_38_" class="st1" d="M293.5,90.6c0,0,5-1.3,10-4c6.6-3.6,11-9.1,11-9.1s-8.1,29.4-29,42.4
			c-24.6,15.4-48.3,15.7-48.3,15.7l0-1.3c9.8-3.3,26.6-10.4,36.7-18.8C291.6,100.8,293.5,90.6,293.5,90.6z"/>
	</g>
	<g id="XMLID_29_">
		<g id="XMLID_33_">
			<path id="XMLID_34_" class="st1" d="M259.4,60.2c4.8,1.2,12.8,14.4,16.2,26c2,6.7,2.1,12.2,1.6,16.4c4.1-7.2,9.4-20,6.9-36.6
				c-0.7-4.6-2.3-9.1-4.5-13.2c-3.4-6.4-8.3-12.1-13.8-16.8c-5.2-4.4-10.2-8.2-16.7-10.5c-2.5,3.2-4.4,7-6.1,11.5
				c-4.8,12.9-6,27.5-1.9,40.3c4.4,13.5,16.4,22.7,24.3,27.6c-2.4-3.2-4.7-7.4-6.2-13C255,75.7,257.2,61.9,259.4,60.2z"/>
		</g>
		<g id="XMLID_31_">
			<path id="XMLID_32_" class="st1" d="M256.3,113.4c-10.5-0.9-18.2-5.1-18.7-6.7c1.7-2.6,11.2-4.5,18.8-4.1
				c3.5,0.2,6.3,0.9,8.6,1.9c-4-5.2-12.1-13.4-25.7-16.5c-3.6-0.8-7.5-1-11.2-0.6c-5.8,0.7-11.5,2.6-16.7,5.3
				c-4.9,2.6-9.1,5.2-12.8,9.3c1.7,2.8,3.9,5.4,6.8,8c8.2,7.4,18.7,12.7,29.6,13.4c11.6,0.7,22.3-5.8,28.2-10.3
				C261.2,113.4,258.9,113.6,256.3,113.4z"/>
		</g>
		<path id="XMLID_30_" class="st1" d="M293.5,90.6c0,0,5-1.3,10-4c6.6-3.6,11-9.1,11-9.1s-8.1,29.4-29,42.4
			c-24.6,15.4-48.3,15.7-48.3,15.7l0-1.3c9.8-3.3,26.6-10.4,36.7-18.8C291.6,100.8,293.5,90.6,293.5,90.6z"/>
	</g>
</g>
<g id="XMLID_43_">
	<path id="XMLID_47_" class="st2" d="M12.5,233.8v-2.4h3.3c3.7,0,6.3-1.2,7.9-3.6c0.9-1.4,1.4-4.6,1.4-9.6v-56.8
		c0-5.5-0.6-9-1.8-10.3c-1.7-1.9-4.2-2.9-7.5-2.9h-3.3v-2.4h35.8c13.1,0,23.1,1.5,29.9,4.5c6.9,3,12.4,7.9,16.5,14.9
		c4.2,6.9,6.3,14.9,6.3,24.1c0,6.5-1,12.4-3.1,17.9c-2.1,5.4-5.2,10.1-9.3,14c-4.1,3.9-9.3,7-15.4,9.2c-6.2,2.2-13.3,3.3-21.4,3.3
		H12.5z M37.6,227.4c5.4,1.2,10,1.8,13.8,1.8c5,0,9.6-0.9,13.8-2.8c4.3-1.8,7.9-4.4,11-7.8c3.1-3.4,5.6-7.5,7.3-12.3
		c1.8-4.8,2.7-10.3,2.7-16.3c0-6-0.9-11.5-2.6-16.3c-1.7-4.8-4.2-9-7.3-12.3c-3.1-3.4-6.9-6-11.2-7.8c-4.3-1.8-9.1-2.7-14.2-2.7
		c-1.9,0-4,0.2-6.2,0.5c-2.2,0.3-4.6,0.8-7.1,1.4V227.4z"/>
	<path id="XMLID_52_" class="st2" d="M140.5,231.7v2h-31.6v-2h2.6c3.1,0,5.3-0.9,6.6-2.7c0.9-1.1,1.3-3.9,1.3-8.4v-47.6
		c0-1.7,0-3.2-0.1-4.2c-0.1-1.1-0.2-2-0.4-2.7c-0.2-0.7-0.5-1.3-0.9-1.7c-0.4-0.4-0.9-0.8-1.5-1.1c-1.6-0.9-3.3-1.3-5-1.3h-2.6v-2
		h31.6v2h-2.7c-3,0-5.2,0.9-6.6,2.7c-0.9,1.1-1.4,3.9-1.4,8.4v47.6c0,1.7,0,3.2,0.1,4.2c0.1,1.1,0.2,2,0.4,2.7
		c0.2,0.7,0.5,1.2,0.9,1.7c0.4,0.4,0.9,0.8,1.6,1.2c1.6,0.9,3.2,1.3,4.9,1.3H140.5z"/>
	<path id="XMLID_54_" class="st2" d="M220.4,160v2c-1.6,0.3-2.9,0.7-4,1.3c-1.1,0.5-2.1,1.3-2.9,2.1c-0.8,0.9-1.6,1.9-2.2,3.1
		c-0.6,1.2-1.3,2.6-1.9,4.2l-25.7,62.7h-2L154,171.9c-1.4-3.3-2.4-5.3-3-6c-0.9-1.1-2-2-3.3-2.6c-1.3-0.6-3.1-1-5.4-1.2v-2h30.1v2
		c-1.7,0.2-3.1,0.4-4.2,0.7c-1.1,0.3-1.9,0.6-2.5,1.1c-0.6,0.4-1,0.9-1.2,1.4c-0.2,0.5-0.3,1.1-0.3,1.8c0,1.8,0.8,4.7,2.5,8.5
		l18.8,43.2L203,176c1.7-4.2,2.6-7.2,2.6-8.8c0-1.1-0.6-2.2-1.8-3.2c-1.2-1-3.2-1.7-6.1-2v-2H220.4z"/>
	<path id="XMLID_57_" class="st2" d="M239.2,209.1h-28.5l-5,11.6c-1.2,2.8-1.8,5-1.8,6.4c0,0.6,0.1,1.1,0.3,1.6
		c0.2,0.5,0.6,0.9,1.2,1.4c0.6,0.4,1.5,0.8,2.6,1c1.1,0.3,2.6,0.5,4.4,0.6v2h-23.2v-2c3-0.5,5-1.3,6-2.1c0.9-0.9,1.9-2.2,2.9-3.9
		c1-1.8,2.1-4,3.2-6.7l25.9-60.7h1.9l25.7,61.3c1.1,2.5,2,4.6,2.9,6.1c0.9,1.5,1.8,2.7,2.7,3.6c0.9,0.9,2,1.4,3.1,1.8
		c1.1,0.3,2.4,0.5,3.9,0.6v2h-29.1v-2c1.4-0.1,2.7-0.2,3.6-0.5c1-0.3,1.7-0.6,2.3-1c0.6-0.4,1-0.9,1.2-1.4c0.2-0.5,0.4-1.1,0.4-1.7
		c0-0.8-0.1-1.8-0.5-3.1c-0.4-1.3-0.9-2.7-1.7-4.5L239.2,209.1z M237.7,205l-12.5-29.8L212.3,205H237.7z"/>
</g>
<g>
	<path class="st1" d="M294,324.8c-0.4,6.8-2.9,12.2-7.4,16.2c-4.3,3.9-9.6,5.8-15.9,5.8h-14.7c-0.3,0-0.5-0.1-0.5-0.4
		c0-0.4,0.2-0.5,0.7-0.5h5.4l6.7-18.5H261l0.4-1h7.4l5.8-16.1h5.2l-5.8,16.1h8.2l-0.3,1h-8.3l-6.7,18.5h4.4c5.3,0,9.7-1.8,13.1-5.5
		c3.8-4,5.9-9.6,6.3-16.9c0.4-5.4-0.9-9.6-3.8-12.6s-7.1-4.6-12.7-4.6c-7,0-12.9,2-17.8,6c-4.7,3.8-7.2,8.4-7.4,13.6
		c-0.1,3.1,0.4,5.8,1.6,7.8c1.2,2.1,3.1,3.4,5.6,4c0.3,0.1,0.5,0.3,0.5,0.6c0,0.4-0.2,0.6-0.6,0.6c-2.6-0.4-4.6-1.8-6.2-4.2
		c-1.6-2.4-2.3-5.4-2.1-8.9c0.3-5.4,2.8-10.1,7.6-14.2c5.2-4.3,11.5-6.5,19.1-6.5c6,0,10.9,1.8,14.6,5.3
		C292.7,314.1,294.4,318.9,294,324.8z"/>
	<path class="st1" d="M314.7,326.3c0,4.7-4.7,7.9-14.2,9.8c-0.7,2-1.1,4-1.1,5.8c0,1.2,0.3,2.3,0.9,3.1s1.5,1.2,2.7,1.2
		c3.1,0,6-2.6,8.9-7.8c0.3-0.6,0.7-1.5,1.4-2.7c0.1-0.2,0.3-0.4,0.5-0.4c0.3,0,0.4,0.2,0.4,0.5c0,0.1,0,0.2-0.1,0.3
		c-1.3,2.9-2.8,5.4-4.5,7.3c-2.3,2.6-4.7,3.9-7.2,3.9c-2.1,0-3.9-0.9-5.2-2.8c-1.3-1.7-1.9-3.6-1.9-5.8c0-3.7,1.5-7.5,4.4-11.3
		c3.1-4.1,6.5-6.2,10.1-6.2c1.4,0,2.5,0.5,3.4,1.5S314.7,324.9,314.7,326.3z M311.7,325c0-1.9-0.8-2.8-2.4-2.8
		c-2.7,0-5.6,4.3-8.5,12.8c2.7-0.2,5.2-1.3,7.3-3.1C310.5,329.8,311.7,327.6,311.7,325z M317.4,319.4h-1c-1.4-0.8-2.8-2-4.3-3.7
		c-2.9,1.8-5.4,3.1-7.4,3.7c-0.1,0-0.6,0-1.5,0c1.6-0.8,3.2-1.7,4.8-2.8c1.9-1.3,3.1-2.5,3.7-3.6h1.9
		C313.7,314.2,315,316.3,317.4,319.4z M318.3,308.2h3.5l-5.5,6.3h-1.2L318.3,308.2z"/>
	<path class="st1" d="M339.3,336c0,0.1,0,0.2-0.1,0.4c-3.3,7.2-6.3,10.8-9,10.8c-1.2,0-2.1-0.6-2.8-1.9c-0.6-1-0.9-2.2-0.9-3.5
		c0-2.1,1-5.2,3.1-9.2c2.1-4.1,3.1-6.9,3.1-8.5c0-1.3-0.5-1.9-1.4-1.9c-2.1,0-4.8,3.5-8,10.6c-1,2.3-2.9,6.9-5.5,14h-4.6l7.4-20.6
		c0.4-1.1,0.6-1.9,0.6-2.3c0-0.8-0.5-1.2-1.5-1.2h-2.2c-0.4,0-0.5-0.2-0.5-0.5c0-0.3,0.2-0.5,0.6-0.5h7.5c0.7,0,0.9,0.4,0.6,1.2
		c-1.2,3.5-2.2,6.4-3.1,8.6c1.6-3.1,2.7-5.2,3.5-6.2c1.8-2.7,3.7-4,5.5-4c1.3,0,2.4,0.7,3.2,2.2c0.6,1.2,1,2.5,1,4c0,2-1,5.1-3,9.2
		s-3,6.8-3,8c0,1,0.4,1.5,1.2,1.5c1.8,0,4.3-3.4,7.4-10.1c0.1-0.4,0.4-0.5,0.6-0.5C339.2,335.5,339.3,335.7,339.3,336z"/>
	<path class="st1" d="M365.2,310.3c-1.6,4.4-5.1,13.9-10.6,28.7c-1,2.8-1.5,4.7-1.5,5.6c0,1,0.4,1.5,1.1,1.5c1.9,0,4.5-3.4,7.7-10.1
		c0.1-0.4,0.4-0.5,0.6-0.5c0.3,0,0.4,0.2,0.4,0.5c0,0.1,0,0.2-0.1,0.4c-1.5,3.1-2.7,5.3-3.7,6.6c-1.9,2.8-3.8,4.2-5.6,4.2
		c-1.2,0-2.1-0.6-2.8-1.9c-0.5-1-0.8-2.1-0.8-3.5c0-2.4,0.7-5.4,2-8.9c1.5-3.6,3-7.2,4.5-10.8c1.9-4.7,3.1-8.3,3.7-10.8
		c0-0.2,0.1-0.4,0.1-0.5c0-0.7-0.4-1.1-1.2-1.1h-2.7c-0.3,0-0.5-0.1-0.5-0.4c0-0.4,0.2-0.6,0.6-0.6h8c0.6,0,0.9,0.2,0.9,0.7
		C365.3,309.8,365.3,310,365.2,310.3z"/>
	<path class="st1" d="M390,336c0,0.1,0,0.2-0.1,0.4c-1.4,3.1-2.5,5.3-3.4,6.6c-1.9,2.8-3.9,4.2-5.9,4.2c-1.1,0-1.9-0.4-2.5-1.2
		c-0.6-0.8-0.8-1.9-0.7-3.2c0.1-1.1,0.4-2.4,0.9-4c-0.4,0.7-1,1.7-1.7,3.1c-2.2,3.6-4.6,5.4-7.2,5.4c-1.7,0-3-0.8-4.1-2.3
		c-1.1-1.5-1.5-3.4-1.4-5.7c0.3-5.2,2.8-10.1,7.4-14.7c2.3-2.2,4.4-3.4,6.5-3.4c1.3,0,2.3,0.5,3,1.6c0.7,1.1,1,2.5,1,4.3
		c0,0.5-0.1,1.1-0.2,1.7l2.9-7.1c0.3,0,1.8,0,4.5,0c-1.9,4.5-4.6,11.1-8.1,19.8c-0.4,1.1-0.6,2.1-0.6,2.8c0,1.1,0.4,1.7,1.1,1.7
		c2.3,0,4.8-3.3,7.7-10c0.2-0.4,0.4-0.5,0.6-0.5C389.9,335.5,390,335.7,390,336z M380.6,327.4c0.1-1.5-0.1-2.7-0.7-3.7
		c-0.5-1-1.2-1.4-2.1-1.4c-1.7,0-3.5,2.1-5.6,6.2c-2.9,5.8-4.5,10.6-4.7,14.3c-0.1,2.3,0.6,3.4,2.2,3.4c2.1,0,4.2-1.8,6.3-5.5
		C378.9,335.6,380.4,331.2,380.6,327.4z M381.8,318.9h-1.2l-5.5-6.3h3.5L381.8,318.9z"/>
	<path class="st1" d="M422.2,314.1l0.6-1.7c0.2-0.5,0.3-1,0.3-1.2c0-0.8-0.5-1.1-1.6-1.1h-2.2c-0.3,0-0.5-0.2-0.5-0.5
		c0-0.3,0.2-0.5,0.5-0.5h7.9c0.7,0,0.8,0.6,0.4,1.9l-1.1,3.2h2.6l-0.6,1.2h-2.5l-8.9,26.3c-0.3,1-0.5,2-0.5,2.8
		c0,1.1,0.4,1.7,1.2,1.7c1.9,0,4.3-3.3,7.1-10c0.1-0.4,0.4-0.5,0.6-0.5c0.3,0,0.5,0.2,0.5,0.5c0,0.1-0.1,0.3-0.1,0.4
		c-3.1,7.2-5.9,10.8-8.6,10.8c-1.1,0-2-0.5-2.7-1.5c-0.6-0.9-1-1.9-1-3c0-1.2,0.2-2.5,0.7-4c-2.7,5.6-5.6,8.5-8.5,8.5
		c-1.9,0-3.4-0.9-4.5-2.7c-0.9-1.5-1.4-3.3-1.4-5.3c0-5.2,2.2-10.1,6.6-14.7c2.2-2.2,4.3-3.4,6.3-3.4c1.5,0,2.5,0.7,3.3,2
		c0.6,1.1,1,2.4,1,4c0,0.6,0,1.1-0.1,1.6l4.5-13.6h-8.3l0.5-1.2H422.2z M416.4,327.4c0-1.2-0.2-2.3-0.6-3.2
		c-0.5-1.3-1.3-1.9-2.4-1.9c-2.2,0-4.3,2.9-6.5,8.7c-1.8,5-2.8,8.9-2.8,11.8c0,2.3,0.8,3.4,2.4,3.4c2.6,0,5-2.5,7.1-7.6
		C415.5,334.3,416.4,330.5,416.4,327.4z"/>
	<path class="st1" d="M446.3,326.3c0,4.7-4.7,7.9-14.2,9.8c-0.7,2-1.1,4-1.1,5.8c0,1.2,0.3,2.3,0.9,3.1c0.6,0.8,1.5,1.2,2.7,1.2
		c3.1,0,6-2.6,8.9-7.8c0.3-0.6,0.7-1.5,1.4-2.7c0.1-0.2,0.3-0.4,0.5-0.4c0.3,0,0.4,0.2,0.4,0.5c0,0.1,0,0.2-0.1,0.3
		c-1.3,2.9-2.8,5.4-4.5,7.3c-2.3,2.6-4.7,3.9-7.2,3.9c-2.1,0-3.9-0.9-5.2-2.8c-1.3-1.7-1.9-3.6-1.9-5.8c0-3.7,1.5-7.5,4.4-11.3
		c3.1-4.1,6.5-6.2,10.1-6.2c1.4,0,2.5,0.5,3.4,1.5S446.3,324.9,446.3,326.3z M434.6,352.2c-0.1,0.9-0.5,1.7-1.1,2.3s-1.2,1-2,1
		c-1.4,0-2.1-0.8-1.9-2.4c0.1-0.9,0.5-1.6,1.1-2.3s1.2-1,2-1C434.2,349.8,434.8,350.6,434.6,352.2z M443.3,325
		c0-1.9-0.8-2.8-2.4-2.8c-2.7,0-5.6,4.3-8.5,12.8c2.7-0.2,5.2-1.3,7.3-3.1C442.2,329.8,443.3,327.6,443.3,325z"/>
	<path class="st1" d="M469.6,329.4c0,5.5-2.2,10.4-6.6,14.6c-2.3,2.1-4.4,3.2-6.5,3.2c-1.5,0-2.6-0.7-3.4-2.1
		c-0.6-1.1-0.9-2.5-0.9-4.2c0-0.5,0-0.9,0.1-1.3l-6.5,18.7h4.9c0.4,0,0.5,0.1,0.5,0.4c0,0.4-0.2,0.6-0.6,0.6h-14
		c-0.3,0-0.4-0.1-0.4-0.4c0-0.4,0.2-0.6,0.7-0.6h4.1l11.5-32.6c0.3-0.9,0.5-1.6,0.5-2c0-0.8-0.4-1.1-1.2-1.1h-2.5
		c-0.5,0-0.8-0.2-0.8-0.5c0-0.3,0.2-0.5,0.7-0.5h8.1c0.3,0,0.5,0.1,0.5,0.4c0,0.7-1.1,3.8-3.3,9.4c2.9-6.9,6-10.3,9.4-10.3
		c1.9,0,3.5,0.9,4.5,2.7C469.2,325.5,469.6,327.3,469.6,329.4z M465.7,325.7c0-2.3-0.8-3.4-2.4-3.4c-2.2,0-4.2,1.8-6.1,5.5
		c-2.7,5.1-4,9.6-4,13.3c0,1.2,0.2,2.3,0.6,3.2c0.6,1.2,1.4,1.8,2.5,1.8c2.1,0,4.3-2.9,6.5-8.7C464.7,332.5,465.7,328.5,465.7,325.7
		z"/>
	<path class="st1" d="M490.9,343.6c-0.1,1.1-0.6,2.1-1.3,2.9c-0.7,0.8-1.6,1.2-2.5,1.2c-0.8,0-1.5-0.3-1.9-0.9s-0.6-1.3-0.5-2.2
		c0.1-1.1,0.5-2,1.3-2.9c0.8-0.8,1.6-1.2,2.5-1.2c0.8,0,1.5,0.3,1.9,0.8S491.1,342.7,490.9,343.6z M504.3,310.9
		c-0.1,1-0.6,2.4-1.6,4.1l-3.7,6.9c-0.2,0.3-0.5,0.8-0.9,1.6l-2.3,4.4c-2.1,4.2-3.8,7.6-4.9,10.3l-0.2,0.4l-1.1-0.3l0.2-0.4
		c1.3-3.3,2.5-6.7,3.6-10.1l1.2-3.9c0.2-0.5,0.4-1.3,0.7-2.4l2.2-7.6c1.1-4,2.6-6,4.7-6C503.8,308,504.6,309,504.3,310.9z"/>
</g>
<g>
</g>
<g>
</g>
<g>
</g>
<g>
</g>
<g>
</g>
<g>
</g>
</svg>
