<?xml version="1.0" encoding="iso-8859-1"?>
<!-- Generator: Adobe Illustrator 19.0.0, SVG Export Plug-In . SVG Version: 6.00 Build 0)  -->
<svg version="1.1" id="Layer_1" xmlns="http://www.w3.org/2000/svg" xmlns:xlink="http://www.w3.org/1999/xlink" x="0px" y="0px"
	 viewBox="0 0 512.001 512.001" style="enable-background:new 0 0 512.001 512.001;" xml:space="preserve">
<g>
	<g>
		<g>
			<path style="fill:#cc0000;" d="M510.058,484.834l-55.962-113.967c-5.946,13.762-16.377,24.949-29.882,31.895L240.452,497.8
				c-0.022,0.011-0.042,0.022-0.064,0.032c-9.154,4.704-19.41,7.189-29.66,7.189c-24.487,0-46.643-13.525-57.821-35.291
				c-5.045-9.817-7.453-20.51-7.181-31.244c-0.007-2.554,0.13-5.107,0.423-7.648l-57.57-29.822
				c-13.482-6.94-23.898-18.105-29.845-31.841L1.943,484.832c-2.875,5.854-2.546,12.385,0.902,17.918
				c3.447,5.535,9.165,8.709,15.686,8.709H493.47c6.52,0,12.239-3.174,15.686-8.709
				C512.605,497.217,512.933,490.687,510.058,484.834z"/>
			<path style="fill:#cc0000;" d="M240.46,93.746c4.39,0,9.457-0.001,15.335-0.001c5.877,0.001,10.941,0.001,15.33,0.001
				c17.804-2.618,31.47-17.952,31.47-36.482V37.424c0-20.37-16.512-36.882-36.883-36.882h-19.839
				c-20.37,0-36.882,16.512-36.882,36.882v19.841C208.991,75.793,222.658,91.127,240.46,93.746z"/>
			<path style="fill:#cc0000;" d="M121.871,305.328h-4.292v0.008c-13.486,0.273-26.393,7.751-32.987,20.59c-9.568,18.622-2.227,41.477,16.4,51.046
				l54.757,28.365c6.117-9.721,14.737-17.672,25.216-23.065l44.844-23.192L121.871,305.328z"/>
			<path style="fill:#cc0000;" d="M210.727,476.229c5.832,0,11.749-1.35,17.294-4.198l183.799-95.058c12.791-6.571,20.257-19.405,20.585-32.831
				c-0.12-5.567-1.469-11.194-4.186-16.48c-6.719-13.081-19.992-20.598-33.751-20.598c-5.831,0-11.75,1.35-17.294,4.198
				l-183.8,95.058c-12.728,6.54-20.184,19.287-20.577,32.645c0.093,5.628,1.43,11.32,4.176,16.665
				C183.692,468.711,196.966,476.229,210.727,476.229z"/>
			<path style="fill:#cc0000;" d="M59.228,267.057l89.014-27.64c3.863-1.203,7.256-3.192,10.097-5.715c0.556-0.419,19.639-17.128,19.639-17.128v89.034
				l77.817,38.225l77.819-38.225v-89.402c0,0,19.49,17.068,20.048,17.488c2.841,2.522,6.233,4.512,10.097,5.715l89.013,27.64
				c14.563,4.534,30.036-3.595,34.569-18.155c4.532-14.559-3.593-30.034-18.156-34.567l-83.617-25.965l-67.055-58.963
				c-5.728-5.045-12.96-7.284-20.019-6.831c-0.679-0.037-84.712-0.037-85.388,0c-6.931-0.345-13.997,1.89-19.616,6.839
				l-67.054,58.963l-83.619,25.965c-14.562,4.534-22.689,20.008-18.155,34.567C29.192,263.462,44.667,271.589,59.228,267.057z"/>
		</g>
	</g>
</g>
<g>
</g>
<g>
</g>
<g>
</g>
<g>
</g>
<g>
</g>
<g>
</g>
<g>
</g>
<g>
</g>
<g>
</g>
<g>
</g>
<g>
</g>
<g>
</g>
<g>
</g>
<g>
</g>
<g>
</g>
</svg>
