<?xml version="1.0" encoding="iso-8859-1"?>
<!-- Generator: Adobe Illustrator 19.0.0, SVG Export Plug-In . SVG Version: 6.00 Build 0)  -->
<svg version="1.1" id="Capa_1" xmlns="http://www.w3.org/2000/svg" xmlns:xlink="http://www.w3.org/1999/xlink" x="0px" y="0px"
	 viewBox="0 0 488.906 488.906" style="enable-background:new 0 0 488.906 488.906;" xml:space="preserve">
<g>
	<g>
		<path style="fill:#cc0000;" d="M179.915,153.565c60.758,0,103.193-23.172,103.193-56.351c-0.001-33.178-42.435-56.35-103.193-56.35
			c-60.761,0-103.194,23.172-103.194,56.351C76.721,130.393,119.155,153.565,179.915,153.565z"/>
		<path style="fill:#cc0000;" d="M357.722,263.716c5.309-1.603,10.933-2.474,16.758-2.474s11.448,0.871,16.756,2.473c0.168-0.439,0.336-0.874,0.505-1.327
			c6.531-17.535,10.057-35.955,10.057-44.382c0-15.065-12.254-27.32-27.317-27.32c-15.065,0-27.32,12.255-27.32,27.32
			c0,8.428,3.525,26.848,10.058,44.383C357.386,262.841,357.554,263.279,357.722,263.716z"/>
		<path style="fill:#cc0000;" d="M391.235,375.012c-5.308,1.602-10.931,2.473-16.756,2.473s-11.449-0.871-16.758-2.474
			c-0.168,0.439-0.337,0.875-0.506,1.328c-6.531,17.536-10.057,35.954-10.057,44.383c0,15.064,12.256,27.32,27.32,27.32
			s27.317-12.255,27.317-27.32c0-8.428-3.525-26.847-10.057-44.383C391.571,375.888,391.403,375.449,391.235,375.012z"/>
		<path style="fill:#cc0000;" d="M430.872,305.316c18.002-3.101,36.738-9.6,44.676-14.325c6.271-3.733,10.713-9.685,12.508-16.757
			c1.795-7.073,0.726-14.422-3.007-20.693c-4.978-8.359-13.767-13.35-23.513-13.35c-4.885,0-9.705,1.331-13.938,3.851
			c-7.241,4.311-21.265,16.761-32.992,31.344c-0.309,0.383-0.603,0.758-0.899,1.135
			C421.992,284.113,428.071,294.073,430.872,305.316z"/>
		<path style="fill:#cc0000;" d="M475.461,348.042c-7.993-4.79-26.868-11.261-44.637-14.417c-2.841,11.216-8.945,21.144-17.245,28.705
			c0.291,0.375,0.588,0.75,0.893,1.133c11.682,14.619,25.668,27.113,32.897,31.446c4.249,2.546,9.094,3.892,14.009,3.892
			c9.712,0,18.486-4.964,23.47-13.281c3.753-6.259,4.843-13.604,3.069-20.683C486.144,357.759,481.72,351.794,475.461,348.042z"/>
		<path style="fill:#cc0000;" d="M318.083,333.409c-18,3.101-36.735,9.598-44.672,14.324c-6.271,3.734-10.713,9.685-12.508,16.758
			c-1.794,7.073-0.727,14.421,3.006,20.691c4.979,8.361,13.768,13.352,23.514,13.352c4.886,0,9.705-1.331,13.936-3.85
			c7.241-4.31,21.266-16.76,32.991-31.344c0.309-0.384,0.603-0.758,0.899-1.133C326.964,354.613,320.886,344.653,318.083,333.409z"
			/>
		<path style="fill:#cc0000;" d="M301.587,243.82c-4.25-2.547-9.093-3.893-14.007-3.893c-9.713,0-18.487,4.965-23.474,13.281
			c-3.75,6.259-4.84,13.605-3.067,20.684c1.774,7.079,6.196,13.043,12.456,16.794c7.992,4.791,26.868,11.262,44.638,14.418
			c2.841-11.215,8.944-21.143,17.245-28.704c-0.293-0.374-0.587-0.751-0.894-1.133C322.803,260.647,308.815,248.154,301.587,243.82z
			"/>
		<circle style="fill:#cc0000;" cx="374.48" cy="319.364" r="39.35"/>
		<path style="fill:#cc0000;" d="M66.782,265.892c27.511,17.362,66.901,26.54,113.913,26.54c21.156,0,40.762-1.865,58.443-5.492
			c-0.912-2.257-1.681-4.589-2.283-6.991c-3.391-13.538-1.307-27.587,5.868-39.559c9.392-15.665,26.578-25.395,44.857-25.395
			c9.429,0,18.705,2.574,26.824,7.442c2.611,1.565,5.529,3.644,8.609,6.077c-0.503-3.893-0.786-7.464-0.786-10.508
			c0-9.575,2.6-18.549,7.113-26.274c-4.611-16.229-16.387-30.611-34.735-42.191c-2.536-1.601-5.175-3.13-7.91-4.59
			c-4.312,4.144-9.234,7.985-14.753,11.468c-22.887,14.445-54.71,22.08-92.028,22.08c-37.319,0-69.142-7.635-92.03-22.08
			c-5.277-3.33-10.01-6.989-14.185-10.926c-2.38,1.298-4.692,2.644-6.918,4.048c-24.173,15.257-36.951,35.374-36.951,58.176
			C29.831,230.519,42.608,250.636,66.782,265.892z"/>
		<path style="fill:#cc0000;" d="M323.065,409.803c-3.209,2.536-6.245,4.693-8.954,6.305c-8.088,4.814-17.316,7.358-26.688,7.358
			c-18.343,0-35.562-9.783-44.936-25.53c-7.14-11.992-9.182-26.047-5.75-39.576c3.432-13.528,11.927-24.911,23.921-32.049
			c3.735-2.225,9.086-4.687,15.418-7.095c-6.318-2.426-11.661-4.905-15.399-7.146c-1.735-1.04-3.388-2.18-4.971-3.391
			c-22.36,5.732-47.599,8.685-75.012,8.685c-51.727,0-95.719-10.508-127.219-30.388c-12.811-8.085-23.264-17.572-31.149-28.105
			c0.01,0.013,0.019,0.026,0.028,0.039C7.75,276.756,0,297.153,0,318.695c0,34.563,19.944,66.186,56.159,89.041
			c40.764,25.727,98.879,39.324,168.065,39.324c36.859,0,70.575-3.861,100.201-11.358c-1.424-4.749-2.198-9.774-2.198-14.979
			C322.228,417.57,322.527,413.858,323.065,409.803z"/>
	</g>
</g>
<g>
</g>
<g>
</g>
<g>
</g>
<g>
</g>
<g>
</g>
<g>
</g>
<g>
</g>
<g>
</g>
<g>
</g>
<g>
</g>
<g>
</g>
<g>
</g>
<g>
</g>
<g>
</g>
<g>
</g>
</svg>
