<svg xmlns="http://www.w3.org/2000/svg" viewBox="0 0 20.95 23.25"><defs><style>.cls-1{fill:#fff;stroke:#fff;stroke-miterlimit:10;stroke-width:0.25px;}</style></defs><title>Asset 3</title><g id="Layer_2" data-name="Layer 2"><g id="Layer_1-2" data-name="Layer 1"><path class="cls-1" d="M20.49,13.24a.34.34,0,0,0,.33-.34V3.35a1.69,1.69,0,0,0-1.68-1.69H17.7V1.15a1,1,0,0,0-1-1h-.15a1,1,0,0,0-1,1v.51h-10V1.15a1,1,0,0,0-1-1H4.28a1,1,0,0,0-1,1v.51H1.81A1.69,1.69,0,0,0,.13,3.35V21.44a1.69,1.69,0,0,0,1.68,1.69H19.14a1.69,1.69,0,0,0,1.68-1.69V14.25a.34.34,0,1,0-.67,0v1.62a.77.77,0,0,1-.77.77H17.13a1.45,1.45,0,0,0-1.44,1.45v2.24a.77.77,0,0,1-.77.77H1.81a1,1,0,0,1-1-1V7.15H3.27a.34.34,0,1,0,0-.67H.8V3.35a1,1,0,0,1,1-1H3.25v1a1,1,0,0,0,1,1,.34.34,0,0,0,0-.67.35.35,0,0,1-.35-.35v-1H15.49v1a1,1,0,0,0,1,1,.34.34,0,0,0,0-.67.35.35,0,0,1-.35-.35v-1h3a1,1,0,0,1,1,1V6.48H4.62a.34.34,0,1,0,0,.67H20.15V12.9A.34.34,0,0,0,20.49,13.24Zm-4.13,7.09V18.09a.77.77,0,0,1,.77-.77h2.25a1.86,1.86,0,0,0,.34,0l-3.4,3.39A1.22,1.22,0,0,0,16.36,20.33ZM1.81,21.78H15.47a1.66,1.66,0,0,0,1.19-.5l3.49-3.48v3.64a1,1,0,0,1-1,1H1.81a1,1,0,0,1-1-1h0A1.68,1.68,0,0,0,1.81,21.78Zm3-20.12H3.93V1.15A.35.35,0,0,1,4.28.8h.15a.35.35,0,0,1,.35.35ZM17,1.66h-.85V1.15A.35.35,0,0,1,16.52.8h.15a.35.35,0,0,1,.35.35Z"/><path class="cls-1" d="M16.32,10l-6,6.39L6.08,12.29a.39.39,0,0,0-.54,0,.38.38,0,0,0,0,.53l4.78,4.65,6.54-6.94a.38.38,0,0,0-.55-.52Z"/></g></g></svg>