<?xml version="1.0"?>
<svg xmlns="http://www.w3.org/2000/svg" id="Layer_1_1_" enable-background="new 0 0 64 64" height="512px" viewBox="0 0 64 64" width="512px"><g><path d="m3 62c.041 0 .083-.002.124-.008l8-1c.221-.027.426-.128.583-.285l43.293-43.293 1.586 1.586-6.293 6.293 1.414 1.414 7-7c.391-.391.391-1.023 0-1.414l-2.293-2.293 1.793-1.793c2.319-2.32 2.319-6.094 0-8.414-1.123-1.124-2.617-1.743-4.207-1.743s-3.084.619-4.207 1.743l-6.5 6.5 1.414 1.414 3.293-3.293 5.586 5.586-18.586 18.586-5.586-5.586 13.293-13.293-1.414-1.414-38 38c-.157.157-.258.362-.285.583l-1 8c-.038.306.066.613.285.831.188.189.443.293.707.293zm46.414-53 1.793-1.793c1.492-1.492 4.094-1.492 5.586 0 1.539 1.54 1.539 4.046 0 5.586l-1.793 1.793zm-15.828 27-20.586 20.586-5.586-5.586 20.586-20.586zm-28.636 17.464 1.05-1.05 5.586 5.586-1.051 1.051-6.384.798z" data-original="#000000" class="active-path" data-old_color="#000000" fill="#FFFFFF"/></g> </svg>
