<svg xmlns="http://www.w3.org/2000/svg" viewBox="0 0 16.19 16.17"><defs><style>.cls-1{fill:#fff;stroke:#fff;stroke-miterlimit:10;stroke-width:0.25px;}</style></defs><title>Asset 1</title><g id="Layer_2" data-name="Layer 2"><g id="Layer_1-2" data-name="Layer 1"><g id="Layer_2-2" data-name="Layer 2"><g id="Layer_1-2-2" data-name="Layer 1-2"><path class="cls-1" d="M16.05,7.6A8,8,0,1,0,7.58,16h.49a7.68,7.68,0,0,0,2.47-.38A2.28,2.28,0,0,0,12,14.32a2.39,2.39,0,0,0-.06-1.91h0l.67-.68a.78.78,0,0,0,.24-.66.82.82,0,0,0-.4-.59L10.11,9.16a.8.8,0,0,0-1,.13l-.59.59a.27.27,0,0,1-.36,0,11.25,11.25,0,0,1-1-.93c-.32-.32-.63-.66-.92-1a.27.27,0,0,1,0-.36L6.84,7A.79.79,0,0,0,7,6L5.67,3.74a.8.8,0,0,0-1.26-.18l-.69.69c-.49.51-.51,1.41,0,2.54A10.92,10.92,0,0,0,6,10.11a11.08,11.08,0,0,0,3.32,2.35,3.9,3.9,0,0,0,1.47.34,1.69,1.69,0,0,0,.67-.12,1.88,1.88,0,0,1,0,1.47,1.77,1.77,0,0,1-1.1,1.07,7.42,7.42,0,0,1-2.77.35,7.52,7.52,0,0,1-7-7.95A7.35,7.35,0,0,1,2.78,2.78,7.53,7.53,0,0,1,15.6,7.66a7.69,7.69,0,0,1-.78,3.8.23.23,0,0,0,.1.31.23.23,0,0,0,.31-.1A8,8,0,0,0,16.05,7.6ZM9.54,12A10.41,10.41,0,0,1,6.37,9.77,10.54,10.54,0,0,1,4.12,6.61c-.39-.94-.41-1.66-.06-2l.3-.3.08.16a.28.28,0,0,0,.21.12.15.15,0,0,0,.11,0,.23.23,0,0,0,.09-.31L4.7,3.94l0,0A.27.27,0,0,1,5,3.81H5A.31.31,0,0,1,5.24,4L6.56,6.26a.35.35,0,0,1,0,.41l-.17.16-1-1.72A.24.24,0,0,0,5.05,5h0A.22.22,0,0,0,5,5.34L6,7.2l-.08.09a.74.74,0,0,0-.06,1,13.7,13.7,0,0,0,1,1.06,13.78,13.78,0,0,0,1.06.95.72.72,0,0,0,1,0l0-.05.41.23h.11a.22.22,0,0,0,.21-.12A.24.24,0,0,0,9.57,10l-.29-.16.19-.2a.34.34,0,0,1,.4-.06l2.31,1.33h0a.31.31,0,0,1,.16.25.28.28,0,0,1-.1.27l-.06.07-1.74-1a.24.24,0,0,0-.23.41l1.63.93-.28.28c-.35.35-1.09.32-2-.06Z"/></g></g></g></g></svg>