<svg
        xmlns="http://www.w3.org/2000/svg"
        xmlns:xlink="http://www.w3.org/1999/xlink"
        width="76px" height="75px">
    <defs>
        <filter filterUnits="userSpaceOnUse" id="Filter_0" x="0px" y="0px" width="76px" height="75px"  >
            <feOffset in="SourceAlpha" dx="0" dy="0" />
            <feGaussianBlur result="blurOut" stdDeviation="4" />
            <feFlood flood-color="rgb(0, 0, 0)" result="floodOut" />
            <feComposite operator="atop" in="floodOut" in2="blurOut" />
            <feComponentTransfer><feFuncA type="linear" slope="0.4"/></feComponentTransfer>
            <feMerge>
                <feMergeNode/>
                <feMergeNode in="SourceGraphic"/>
            </feMerge>
        </filter>

    </defs>
    <g filter="url(#Filter_0)">
        <path fill-rule="evenodd"  fill="rgb(255, 255, 255)"
              d="M59.125,35.837 C59.125,36.797 59.125,37.757 59.125,38.718 C59.061,39.233 59.007,39.749 58.932,40.263 C58.310,44.496 56.641,48.261 53.824,51.487 C50.460,55.340 46.248,57.729 41.207,58.633 C40.433,58.771 39.651,58.858 38.872,58.969 C37.912,58.969 36.952,58.969 35.991,58.969 C35.477,58.905 34.960,58.852 34.447,58.776 C29.277,58.007 24.894,55.725 21.375,51.858 C17.909,48.047 16.042,43.533 15.763,38.396 C15.549,34.457 16.371,30.719 18.206,27.217 C22.469,19.082 31.312,14.530 40.443,15.785 C43.703,16.234 46.725,17.359 49.445,19.216 C54.687,22.797 57.848,27.724 58.876,33.999 C58.976,34.609 59.043,35.224 59.125,35.837 ZM37.442,19.923 C27.943,19.902 20.098,27.738 20.077,37.268 C20.057,46.767 27.891,54.609 37.422,54.631 C46.921,54.652 54.766,46.816 54.786,37.286 C54.807,27.787 46.973,19.945 37.442,19.923 ZM32.193,30.904 C32.162,31.665 32.176,32.427 32.176,33.189 C32.176,36.632 32.160,40.075 32.190,43.518 C32.203,44.965 33.251,45.586 34.556,44.989 C34.684,44.930 34.812,44.871 34.934,44.801 C38.363,42.823 41.797,40.851 45.219,38.858 C46.816,37.928 46.818,36.627 45.223,35.698 C41.789,33.698 38.346,31.715 34.897,29.742 C34.516,29.523 34.073,29.411 33.848,29.324 C32.830,29.334 32.230,29.971 32.193,30.904 Z"/>
    </g>
</svg>