<?xml version="1.0" encoding="iso-8859-1"?>
<!-- Generator: Adobe Illustrator 16.0.0, SVG Export Plug-In . SVG Version: 6.00 Build 0)  -->
<!DOCTYPE svg PUBLIC "-//W3C//DTD SVG 1.1//EN" "http://www.w3.org/Graphics/SVG/1.1/DTD/svg11.dtd">
<svg version="1.1" id="Capa_1" xmlns="http://www.w3.org/2000/svg" xmlns:xlink="http://www.w3.org/1999/xlink" x="0px" y="0px"
	 width="168.971px" height="168.97px" viewBox="0 0 168.971 168.97" style="enable-background:new 0 0 168.971 168.97;"
	 xml:space="preserve">
<g>
	<g>
		<rect style="fill:#cc0000;" x="8.009" width="152.953" height="7.645"/>
		<path style="fill:#cc0000;" d="M153.312,12.429H15.657v152.475h-3.826v4.066h3.826h49.283v-55.448h39.092v55.448h49.281h3.83v-4.066h-3.83V12.429
			L153.312,12.429z M127.397,52.082h11.129v11.13h-11.129V52.082z M113.582,38.238h11.133v11.128h-11.133V38.238z M113.574,52.082
			h11.136v11.13h-11.136V52.082z M85.84,38.238h11.135v11.128H85.84V38.238z M85.82,52.082h11.136v11.13H85.82V52.082z
			 M72.009,38.238h11.135v11.128H72.009V38.238z M72.004,52.082h11.134v11.13H72.004V52.082z M44.269,38.238h11.134v11.128H44.269
			V38.238z M44.251,52.082h11.135v11.13H44.251V52.082z M30.434,52.082h11.132v11.13H30.434V52.082z M41.572,147.333H30.439V136.22
			h11.133V147.333z M41.577,133.49H30.444v-11.131h11.133V133.49z M41.577,49.366H30.444V38.238h11.133V49.366z M55.391,147.333
			h-11.14V136.22h11.135v11.113H55.391z M55.407,133.49H44.274v-11.131h11.133V133.49z M124.715,147.333h-11.133V136.22h11.133
			V147.333z M124.723,133.49h-11.137v-11.131h11.137V133.49z M126.544,100.017H42.42V77.068h84.124V100.017z M138.534,147.333
			h-11.137V136.22h11.137V147.333z M138.534,133.49h-11.137v-11.131h11.137V133.49z M138.534,49.366h-11.137V38.238h11.137V49.366z"
			/>
		<rect style="fill:#cc0000;" x="92.847" y="141.237" width="8.12" height="3.114"/>
		<path style="fill:#cc0000;" d="M71.96,91.924c-0.998,0-1.956-0.322-2.583-0.64l-0.47,1.936c0.582,0.317,1.74,0.614,2.919,0.614
			c2.829,0,4.155-1.467,4.155-3.185c0-1.462-0.856-2.408-2.683-3.082c-1.328-0.503-1.904-0.788-1.904-1.451
			c0-0.544,0.486-0.995,1.497-0.995c1.006,0,1.737,0.295,2.155,0.486l0.518-1.882c-0.614-0.271-1.464-0.517-2.629-0.517
			c-2.432,0-3.899,1.34-3.899,3.1c0,1.505,1.119,2.455,2.828,3.053c1.246,0.438,1.732,0.806,1.732,1.45
			C73.596,91.481,73.036,91.924,71.96,91.924z"/>
		<path style="fill:#cc0000;" d="M82.932,90.004l0.801,0.037c1.371,0,2.548-0.333,3.345-1.078c0.616-0.582,0.952-1.445,0.952-2.454
			c0-1.006-0.445-1.866-1.104-2.386c-0.683-0.55-1.71-0.824-3.144-0.824c-1.427,0-2.442,0.096-3.149,0.219v10.162h2.304v-3.677
			H82.932z M82.932,85.155l0.969-0.096c1.16,0,1.821,0.567,1.821,1.513c0,1.053-0.779,1.681-2.002,1.681l-0.787-0.061V85.155z"/>
		<path style="fill:#cc0000;" d="M94.039,91.038h2.955l0.799,2.644h2.501l-3.189-10.305h-3.065l-3.144,10.305h2.41L94.039,91.038z M94.991,87.114
			c0.172-0.6,0.325-1.376,0.484-1.987h0.02c0.153,0.61,0.34,1.371,0.521,1.987l0.639,2.191h-2.276L94.991,87.114z"/>
	</g>
</g>
<g>
</g>
<g>
</g>
<g>
</g>
<g>
</g>
<g>
</g>
<g>
</g>
<g>
</g>
<g>
</g>
<g>
</g>
<g>
</g>
<g>
</g>
<g>
</g>
<g>
</g>
<g>
</g>
<g>
</g>
</svg>
