<?xml version="1.0" encoding="iso-8859-1"?>
<!-- Generator: Adobe Illustrator 19.0.0, SVG Export Plug-In . SVG Version: 6.00 Build 0)  -->
<svg version="1.1" id="Capa_1" xmlns="http://www.w3.org/2000/svg" xmlns:xlink="http://www.w3.org/1999/xlink" x="0px" y="0px"
	 viewBox="0 0 437.6 437.6" style="enable-background:new 0 0 437.6 437.6;" xml:space="preserve">
<g>
	<g>
		<g>
			<path style="fill:#cc0000;" d="M335.2,249H266c-56,0-102,46-102,102h273.6C437.6,295,391.6,249,335.2,249z"/>
			<circle style="fill:#cc0000;" cx="300.8" cy="157.8" r="71.2"/>
			<path style="fill:#cc0000;" d="M195.6,208.6V109c0-9.6-8-17.6-17.6-17.6H17.6C8,91.4,0,99.4,0,109v99.6c0,9.6,8,17.6,17.6,17.6H128l25.2,25.2
				c0.8,1.2,2.4,1.6,4,1.6c3.2,0,5.6-2.4,5.6-5.6v-21.2H178C187.6,226.2,195.6,218.2,195.6,208.6z M40.8,177.4
				c-9.2,0-16.4-7.2-16.4-16.4c0.4-8.8,7.6-16.4,16.4-16.4s16.4,7.2,16.4,16.4C57.2,169.8,50,177.4,40.8,177.4z M98,177.4
				c-8.8,0-16.4-7.2-16.4-16.4c0-8.8,7.2-16.4,16.4-16.4c8.8,0,16.4,7.2,16.4,16.4C114.4,169.8,107.2,177.4,98,177.4z M154.8,177.4
				c-9.2,0-16.4-7.2-16.4-16.4c0-8.8,7.2-16.4,16.4-16.4c8.8,0,16.4,7.2,16.4,16.4C171.2,169.8,164,177.4,154.8,177.4z"/>
		</g>
	</g>
</g>
<g>
</g>
<g>
</g>
<g>
</g>
<g>
</g>
<g>
</g>
<g>
</g>
<g>
</g>
<g>
</g>
<g>
</g>
<g>
</g>
<g>
</g>
<g>
</g>
<g>
</g>
<g>
</g>
<g>
</g>
</svg>
