<svg id="Layer_1" data-name="Layer 1" xmlns="http://www.w3.org/2000/svg" viewBox="0 0 87 37"><defs><style>.cls-1{fill:#e5c57b;}</style></defs><title>Untitled-2</title><path class="cls-1" d="M80.77,13.85c-1.58-2-3.36-4.21-6.9-4.21s-5.32,2.23-6.9,4.21c-1.46,1.83-2.72,3.4-5.28,3.4s-3.82-1.57-5.28-3.4c-1.58-2-3.37-4.21-6.9-4.21s-5.33,2.23-6.9,4.21c-1.47,1.83-2.73,3.4-5.29,3.4s-3.81-1.57-5.28-3.4c-1.57-2-3.36-4.21-6.9-4.21s-5.32,2.23-6.9,4.21c-1.46,1.83-2.72,3.4-5.28,3.4s-3.82-1.57-5.28-3.4S4.34,9.67.85,9.64V12c2.51,0,3.76,1.6,5.21,3.41,1.58,2,3.37,4.21,6.9,4.21s5.32-2.24,6.9-4.21S22.59,12,25.14,12s3.82,1.58,5.28,3.41,3.37,4.21,6.9,4.21,5.33-2.24,6.91-4.21S47,12,49.51,12s3.82,1.58,5.28,3.41,3.37,4.21,6.9,4.21,5.32-2.24,6.9-4.21S71.32,12,73.87,12s3.82,1.58,5.28,3.41,3.35,4.18,6.85,4.2V17.25C83.48,17.23,82.22,15.66,80.77,13.85Z"/><path class="cls-1" d="M80.77,19.72c-1.58-2-3.36-4.21-6.9-4.21s-5.32,2.23-6.9,4.21c-1.46,1.82-2.72,3.4-5.28,3.4s-3.82-1.58-5.28-3.4c-1.58-2-3.37-4.21-6.9-4.21s-5.33,2.23-6.9,4.21c-1.47,1.82-2.73,3.4-5.29,3.4s-3.81-1.58-5.28-3.4c-1.57-2-3.36-4.21-6.9-4.21s-5.32,2.23-6.9,4.21c-1.46,1.82-2.72,3.4-5.28,3.4s-3.82-1.58-5.28-3.4S4.34,15.54.85,15.51v2.34c2.51,0,3.76,1.6,5.21,3.41,1.58,2,3.37,4.21,6.9,4.21s5.32-2.24,6.9-4.21,2.73-3.41,5.28-3.41,3.82,1.58,5.28,3.41,3.37,4.21,6.9,4.21,5.33-2.24,6.91-4.21,2.72-3.41,5.28-3.41,3.82,1.58,5.28,3.41,3.37,4.21,6.9,4.21,5.32-2.24,6.9-4.21,2.73-3.41,5.28-3.41,3.82,1.58,5.28,3.41,3.35,4.18,6.85,4.2V23.12C83.48,23.1,82.22,21.53,80.77,19.72Z"/><path class="cls-1" d="M80.77,25.59c-1.58-2-3.36-4.21-6.9-4.21s-5.32,2.23-6.9,4.21c-1.46,1.82-2.72,3.4-5.28,3.4s-3.82-1.58-5.28-3.4c-1.58-2-3.37-4.21-6.9-4.21s-5.33,2.23-6.9,4.21c-1.47,1.82-2.73,3.4-5.29,3.4s-3.81-1.58-5.28-3.4c-1.57-2-3.36-4.21-6.9-4.21s-5.32,2.23-6.9,4.21C16.78,27.41,15.52,29,13,29s-3.82-1.58-5.28-3.4S4.34,21.41.85,21.38v2.34c2.51,0,3.76,1.6,5.21,3.41,1.58,2,3.37,4.21,6.9,4.21s5.32-2.24,6.9-4.21,2.73-3.41,5.28-3.41S29,25.3,30.42,27.13s3.37,4.21,6.9,4.21,5.33-2.24,6.91-4.21,2.72-3.41,5.28-3.41,3.82,1.58,5.28,3.41,3.37,4.21,6.9,4.21,5.32-2.24,6.9-4.21,2.73-3.41,5.28-3.41,3.82,1.58,5.28,3.41,3.35,4.18,6.85,4.2V29C83.48,29,82.22,27.4,80.77,25.59Z"/></svg>