<?xml version="1.0" encoding="utf-8"?>
<!-- Generator: Adobe Illustrator 22.0.1, SVG Export Plug-In . SVG Version: 6.00 Build 0)  -->
<svg version="1.1" id="Layer_1" xmlns="http://www.w3.org/2000/svg" xmlns:xlink="http://www.w3.org/1999/xlink" x="0px" y="0px"
	 viewBox="0 0 213.3 61.3" style="enable-background:new 0 0 213.3 61.3;" xml:space="preserve">
<style type="text/css">
	.st0{opacity:0.4;fill:#F3C94E;}
	.st1{opacity:0.3;fill:#F3C94E;}
	.st2{fill:#DAA402;}
	.st3{display:none;}
	.st4{display:inline;}
	.st5{opacity:0.4;fill:#DAA402;}
	.st6{opacity:0.2;fill:#DAA402;}
	.st7{opacity:0.3;fill:#DAA402;}
</style>
<g>
	<g>
		<path class="st0" d="M213.8,1.3h-15.4c-16.4,0-32,4.7-43.6,13l0,0c-11.6,8.3-27.2,6.3-43.6,6.3h-112v41.1h214.7V1.3z"/>
		<path class="st1" d="M-0.8,61.7h214.7V13.6l0,0c-12.4,0-24.4,4.2-33.2,11.6l-6.7,5.7c-8.8,7.4-20.7,11.6-33.2,11.6H-0.8V61.7z"/>
		<path class="st2" d="M-0.8,26v35.7h171.5c-18.6-14.9-27.5-34.5-56.2-35.7H-0.8z"/>
	</g>
	<g class="st3">
		<g class="st4">
			<path class="st5" d="M-0.3-108.2H15c16.3,0,31.9-3.9,43.4-10.9l0,0c11.5-7,27.1-10.9,43.4-10.9h111.5v-29.1H-0.3V-108.2z"/>
			<path class="st6" d="M213.3-159.2H-0.3v18.6h43.3c20.9,0,41.4,3.2,59.6,9.3l0,0c18.3,6.1,38.8,9.3,59.6,9.3h51.1V-159.2z"/>
			<path class="st7" d="M0,49.3l-0.3-178.7l0,0c12.4,0,24.3-3,33-8.3l6.7-4.1c8.8-5.3,20.6-8.3,33-8.3h140.9v-9H-0.3"/>
			<g>
				<path class="st2" d="M163-134.7h50.3v-24.5H91.7C110.2-146.6,134.4-135.7,163-134.7z"/>
			</g>
		</g>
	</g>
</g>
</svg>
