<svg xmlns="http://www.w3.org/2000/svg" width="371" height="54"><g transform="translate(0 -6)"><defs><filter id="a" filterUnits="userSpaceOnUse" x="-555.5" y="6" width="1672.8" height="60"><feFlood result="back" flood-color="#fff" flood-opacity="1"/><feBlend in="SourceGraphic" in2="back"/></filter></defs><mask maskUnits="userSpaceOnUse" x="-555.5" y="6" width="1672.8" height="60" id="b"><path fill="#fff" d="M185.5 0h371v60h-371z" filter="url(#a)"/></mask><path d="M931.1 6c-51 0-77.6 12.3-101.1 23.1-23.1 10.6-42.9 19.7-84.9 19.7-42 0-61.8-9.1-84.8-19.7C636.8 18.3 610.2 6 559.1 6c-51 0-77.6 12.3-101.1 23.1-23 10.6-42.8 19.7-84.7 19.7-42 0-61.8-9.1-84.8-19.7-23.3-10.8-50-23.1-101-23.1-50.9 0-77.6 12.3-101 23.1-23 10.6-42.9 19.7-84.8 19.7S-60.1 39.7-83 29.1C-106.5 18.3-133.1 6-184 6s-77.6 12.3-101 23.1c-23 10.6-42.9 19.7-84.8 19.7s-61.8-9.1-84.7-19.7C-478 18.3-504.6 6-555.5 6v60H1117.2l-.1-17.2c-41.9 0-135-42.8-186-42.8z" mask="url(#b)" fill="#fff"/></g></svg>