<svg xmlns="http://www.w3.org/2000/svg" viewBox="0 0 7.03 6.67"><defs><style>.cls-1{fill:#fff;}</style></defs><title>Youtube</title><g id="Layer_2" data-name="Layer 2"><g id="Layer_1-2" data-name="Layer 1"><path class="cls-1" d="M4,5.22V4.69c0-.06.08-.13.17-.13s.11,0,.12.11v1c0,.19-.07.23-.24.14a.08.08,0,0,1,0-.09V5.22"/><path class="cls-1" d="M5.85,5H5.56c0-.12,0-.24,0-.35s.07-.11.15-.1a.13.13,0,0,1,.14.11V5"/><path class="cls-1" d="M0,4.25A2.33,2.33,0,0,1,.07,4a1.2,1.2,0,0,1,1.18-.84H5.78A1.23,1.23,0,0,1,7,4.17a1.64,1.64,0,0,1,0,.22V5.44A1.23,1.23,0,0,1,6,6.65l-.25,0H1.26A1.25,1.25,0,0,1,0,5.61s0,0,0,0ZM4,6a2.31,2.31,0,0,0,.19.14.32.32,0,0,0,.51-.25c0-.32,0-.64,0-1,0-.14,0-.28,0-.42a.26.26,0,0,0-.15-.23.38.38,0,0,0-.36,0A1.62,1.62,0,0,0,4,4.45V3.64h-.4V6.16H4ZM2,4.28V5.76a1.09,1.09,0,0,0,0,.18.24.24,0,0,0,.18.22.43.43,0,0,0,.42-.09L2.72,6a1.24,1.24,0,0,1,0,.16h.38V4.28H2.73V5.75a.08.08,0,0,1,0,.08c-.06,0-.13.08-.2,0s0-.12,0-.18V4.28Zm4.24,1V4.63a.45.45,0,0,0-.18-.28.74.74,0,0,0-.58-.07.4.4,0,0,0-.35.4c0,.33,0,.67,0,1a.47.47,0,0,0,.1.3.46.46,0,0,0,.4.19A.6.6,0,0,0,6.16,6a.6.6,0,0,0,.1-.5H5.85v.24a.13.13,0,0,1-.14.13c-.09,0-.15,0-.15-.12s0-.25,0-.38v-.1ZM1.94,3.64H.66V4h.41v2.2h.44V4h.38S2,4,2,3.92a2.62,2.62,0,0,1,0-.28"/><path class="cls-1" d="M5.29.71h.44V2.78h-.4a.85.85,0,0,1,0-.17l-.21.14a.43.43,0,0,1-.35,0,.28.28,0,0,1-.21-.26,1.62,1.62,0,0,1,0-.22V.71H5V2.25a.38.38,0,0,0,0,.1c0,.11.07.15.17.12a.35.35,0,0,0,.12-.07s0,0,0-.07c0-.51,0-1,0-1.53Z"/><path class="cls-1" d="M2.21,2.78H1.73V1.7a.51.51,0,0,0,0-.13L1.21.07a.64.64,0,0,1,0-.07h.52L2,1.05c.09-.36.17-.7.26-1h.51s0,.05,0,.08c-.17.49-.33,1-.5,1.49a.5.5,0,0,0,0,.12V2.78Z"/><path class="cls-1" d="M4,1.75c0,.18,0,.36,0,.54a.48.48,0,0,1-.42.5.9.9,0,0,1-.46,0,.46.46,0,0,1-.34-.41.66.66,0,0,1,0-.14c0-.31,0-.63,0-1a.75.75,0,0,1,0-.26A.43.43,0,0,1,3.12.73a.86.86,0,0,1,.59,0A.46.46,0,0,1,4,1.17c0,.19,0,.39,0,.58Zm-.45,0h0V1.18c0-.11-.06-.16-.17-.16s-.14.05-.16.15V2.25s0,.07,0,.1a.15.15,0,0,0,.16.13.16.16,0,0,0,.16-.13v-.6"/></g></g></svg>